<svg xmlns="http://www.w3.org/2000/svg">

<svg xmlns="http://www.w3.org/2000/svg" xmlns:xlink="http://www.w3.org/1999/xlink" xml:space="preserve" viewBox="0 0 1024 1024">
  <circle cx="512" cy="512" r="512" id="foreground" mask="url(#mask)"/>
  <mask id="mask">
    <rect fill="white" height="1024" width="1024"/>
    <path fill="black" stroke="black" d="M240,161C232.56,150.81 218.883,123.93 209.253,109.747C202.111,99.227 185.046,107.23 176.23,113.23C166.247,120.024 150.73,132.245 126.75,159.333C101.754,187.569 89.987,206.507 84.587,217.587C79.197,228.677 65.813,246.838 80.78,252.22C96.817,257.987 107.367,261.343 122,265C106.15,287.32 32.851,358.628 19.667,378C15.268,384.463 37.057,389.96 42.897,381.23C48.737,372.5 135.29,280.217 141,272.667C132.059,313.022 132.82,327.548 136.582,350.277C141.343,379.046 157.488,417.702 197.403,446.597C231.392,471.201 263.022,476.026 315.333,476C369.966,475.972 436.886,456.065 516.825,428.502C527.946,430.502 541.323,434.779 555.897,438.77C567.752,442.016 592.841,449.467 595.7,448.367C598.324,447.356 602.183,436.797 603.403,427.737C607.727,395.635 615.861,333.36 619.667,305.333C620.624,298.281 620.815,282.349 618.23,280.897C615.049,279.11 594.881,281.375 582.033,284.357C569.149,287.347 554.95,290.77 544.333,294C500.793,267.21 451.863,239.603 407.413,212.253C362.963,184.903 302.563,171.073 249.333,173.333C258.053,167.643 316.315,126.317 324.253,121.92C332.41,117.402 351.406,108.871 346.3,100.71C341.672,93.312 327.939,104.407 318.667,106.413C296.806,111.144 281.614,122.391 267.821,140.323C261.535,148.494 244.739,157.803 240,161M584,426.667C576.447,425.369 565.642,422.902 558.667,420.667C548.855,417.523 524.278,409.095 521.447,409.113C518.316,409.134 480.604,422.391 467.32,426.653C453.837,430.98 436.707,436.027 422.32,439.32C408.397,442.507 393.501,446.532 379,449.667C363.44,453.031 350.977,455.523 335.447,457.113C318.817,458.817 302.792,459.037 287.323,458.01C272.67,457.038 256.277,453.757 243.78,449.553C230.767,445.176 219.57,439.83 208.92,432.08C198.27,424.33 190.8,417.56 182.75,407.25C174.7,396.93 169.1,387.72 163.69,375.31C158.29,362.89 154.233,347.248 153,333C151.763,318.71 152.766,300.739 156.333,287.667C159.71,275.293 166.13,260.667 173.103,249.437C179.986,238.353 186.887,230.241 196.583,221.25C206.26,212.277 216.673,204.823 229.413,199.747C241.932,194.758 258.103,193.12 273,193.667C287.231,194.189 305.5,198.05 319.02,200.98C332.55,203.9 346.16,207.6 358.68,212.32C371.2,217.04 382.84,221.31 394.08,227.92C405.32,234.54 416.27,240.08 427.08,246.92C437.9,253.76 453.476,262.565 464.413,269.253C475.903,276.28 491.723,286.793 503.23,293.103C515.74,299.963 535.378,312.899 538.77,312.897C541.828,312.895 570.081,305.082 580.563,303.154C587.508,301.878 596.567,300.027 601.667,300.333C598.511,338.294 591.166,387.74 584,426.667Z" transform="matrix(1.393498 0 0 1.393498 66.49659738 65.38381536)"/>
    <path fill="black" stroke="black" d="M261,301C253.13,299.59 236.95,300.64 240.07,309.93C243.2,319.21 246.25,324.12 249.07,332.93C251.9,341.73 264.35,340.66 269.75,334.75C275.14,328.83 281.99,322.67 277.92,315.08C273.86,307.48 269.17,302.46 261,301Z" transform="matrix(1.393498 0 0 1.393498 68.35459048 67.81255751)"/>
  </mask>
</svg>

<style>
  path { vector-effect: non-scaling-stroke; stroke-width: 1.5px; }
  @media (prefers-color-scheme: light) { #foreground { fill: #403f5f; } }
  @media (prefers-color-scheme: dark) { #foreground { fill: #ffffff; } }
</style>

</svg>