<svg version="1" xmlns="http://www.w3.org/2000/svg" width="960" height="960" viewBox="0 0 720.000000 720.000000"><path d="M530.6 105.9c-6.6 4.4-6.6 4.5-6.6 37.6v30L347.7 349.8 171.5 526h-29c-32 0-32.3.1-36.6 6.6-1.8 2.7-1.9 5.3-1.9 38.4 0 32.9.1 35.7 1.9 38.3 1.8 2.7 9.1 8.4 9.1 7.1 0-.3.8 0 1.7.7.9.8 1.4.9 1.1.4-.4-.7 10.6-1 33-1 18.6.1 33.9-.2 34.2-.5.3-.3 1.3.2 2.2 1.2 1.7 1.7 1.7 1.8 0 1.5-.9-.1-2.3-.6-2.9-1-.8-.5-1.3-.4-1.3.2 0 .6.5 1.1 1.2 1.1.6 0 .3.6-.8 1.4-1 .8-1.5 1.8-1.1 2.3.5.4 1.6-.2 2.5-1.5 1.4-1.8 2-2 3-1 .9.9 1.2.9 1.2-.1 0-.7.5-.9 1.1-.5.8.5.6 1-.5 1.6-.9.5-2 .7-2.4.4-.4-.3-1.3.3-1.9 1.3-.9 1.4-.8 1.8.3 1.8.7 0 1.1-.4.8-.9-.3-.4.3-.8 1.3-.8 1.1 0 2.5-.6 3.1-1.2 1-1 1.5-1 2.2.2.9 1.3 1 1.3 1.1 0 .1-.8.1-1.9 0-2.3-.1-.5.9-.6 2.1-.3 1.3.3 1.7.3 1 0-.9-.4-1-.9-.2-1.9.6-.7.9-1.9.8-2.6-.2-.9.6-1.4 2.4-1.4 2.1.1 2.5-.3 2.2-2-.2-1.1-.8-2.1-1.4-2.3-.6-.2-.8-.8-.5-1.2.3-.5-.5-1.6-1.7-2.4-1.2-.9-1.8-1.7-1.3-1.7.6-.1 1.6-.2 2.4-.3.8 0 1.6-.8 1.8-1.6.4-1.3.3-1.3-.6 0-.5.8-1.4 1.1-1.8.6-.4-.4.2-1.6 1.5-2.6 1.2-1 2.2-2.1 2.2-2.5 0-.4-.6-.2-1.3.4-.8.6-1.7.8-2 .4-1-.9 3.4-4.4 4.6-3.6.6.3.7.1.3-.6-.4-.6-1.2-.8-1.8-.5-.6.4-2.2.8-3.5 1-1.8.2-2.3-.1-1.9-1.3.3-.8.6-1.8.6-2.1 0-.4.4-.1.9.7.7 1 1.3 1.1 2.7.2 1.8-1.1 1.8-1.1 0-.9-1 .2-2.1-.3-2.3-1-.3-.6.1-1 .9-.9.7.2 1 .2.5 0-.4-.3-.5-.9-.1-1.4.3-.5.2-.9-.3-.8-2 .3-3.4-.2-2.8-1.1.3-.5 1.2-.7 2-.3.8.3 1.5.1 1.5-.4 0-1.7-1.3-2.3-2.6-1.2-1 .8-1.3.6-1.1-1 .2-2.5.6-2.6 3.5-.6 2 1.4 2.1 1.4 1.6 0-.3-.8-1.2-1.5-2-1.5s-1.4-.5-1.4-1.1c0-.5.4-.8.8-.5.5.3.9-1.1.9-3.2.1-2 .4-4.6.8-5.7.5-1.4.4-1.6-.3-.6-.6.8-1.2.9-1.6.3-.3-.6-.2-1.3.3-1.6 1.4-.9 1-5.6-.5-5.6-1.2 0-1.2-.4-.2-1.9.7-1.1 1.6-1.8 2-1.5.4.3.5-.1.2-.9-.3-.9.4-2.2 1.8-3.1 1.2-.9 1.9-1.6 1.5-1.6-.5 0-2.4 1.2-4.3 2.6-1.9 1.5-3.4 2.2-3.4 1.6 0-.6 1.7-2.3 3.8-3.7 3.5-2.4 3.8-2.4 5.1-.8.9 1.2 1.2 1.3.9.3-.3-.8.5-2.3 1.6-3.2 1.2-1 1.5-1.7.7-1.6-.7.2-1.5-.2-1.8-.9-.5-1.5 2-1.1 4.3.7 1.8 1.4 1.8 1.4.2-.6-2.3-2.7-2.3-3.4.2-2.9 1.1.2 1.8 0 1.5-.6-.7-1.1.7-1.2 2.1-.1.5.4.2 0-.8-.9-2.1-2-1.2-3.2 1.4-1.8 1.7.9 1.8.8.9-.9-.8-1.6-.7-2.5.9-4.4 1.1-1.2 1.9-1.8 2-1.3 0 .6-.5 1.6-1.1 2.2-.8.8-.8 1.6 0 3 1 1.6 1 1.5.8-.7-.1-1.4.3-2.4.9-2.3.7.1 1-.6.7-1.6-.3-1.2.4-2.5 1.8-3.5 2.1-1.4 2.4-1.4 4.3.2 2.1 1.7 2.1 1.7.3-.4-2.2-2.7-2.2-3.4.3-2.9 1.1.2 1.8 0 1.5-.6-.7-1.1.7-1.2 2.1-.1.5.4.2 0-.8-.9-2.1-2-1.2-3.2 1.4-1.8 1.7.9 1.8.8.9-.9-.8-1.6-.7-2.5.9-4.4 1.1-1.2 1.9-1.8 2-1.3 0 .6-.5 1.6-1.1 2.2-.8.8-.8 1.6 0 3 1 1.6 1 1.5.8-.7-.1-1.4.3-2.4.9-2.3.7.1 1-.6.7-1.6-.6-2.4 3.7-5.7 4.9-3.8.5.8.8.6.8-.6 0-1.4-.5-1.7-2.2-1.2-2 .5-2.1.5-.5-.5.9-.6 1.5-1.5 1.2-2-.3-.4.2-1 1-1.3.9-.4 1.2-.1.8.9-.5 1.5 1.2 2 2.1.6.8-1.4-1.1-3.5-2.5-2.8-.8.4-.5 0 .6-.8 1.8-1.5 2-1.5 3.2.6.7 1.3 1.2 1.7 1.3 1 0-.7.4-1.1.9-.8.5.3.7-.8.6-2.4-.1-1.7.2-2.7.7-2.4.5.4 1.6-.3 2.4-1.5 2.2-3.1 3.7-2.6 1.8.7-1.5 2.5-1.5 2.6.1.7.9-1.1 2-1.9 2.4-1.8.5.1.6-1 .4-2.5-.2-1.5-.5-3.3-.5-4-.1-.6-.6-1.2-1.1-1.2-.5 0-.6.8-.2 1.7.5 1.4.3 1.5-.6.6-1.2-1.2-.5-3.3 1.1-3.3 1.4 0 3.8 5.2 3.3 7-.4 1.3-.3 1.3.5.1.6-.8.8-2.1.4-2.9-.3-1-.1-1.3.6-.8.7.4 1-.1.7-1.5-.3-1.6 0-1.9 1.2-1.5 1.4.6 1.3.3-.2-2-1.3-2-1.4-2.9-.5-3.8.9-.8 1.1-.8.8.3-.6 2.8 1.8 2 6.1-1.9s4.5-4 6.5-2.3c2.1 1.8 2.1 1.8.3-.3-2.2-2.7-2.2-3.4.3-2.9 1.1.2 1.8 0 1.5-.6-.7-1.1.7-1.2 2.1-.1.5.4.2 0-.8-.9-2.1-2-1.2-3.2 1.4-1.8 1.7.9 1.8.8.9-.9-.8-1.6-.7-2.5.9-4.4 1.1-1.2 1.9-1.8 2-1.3 0 .6-.5 1.6-1.1 2.2-.8.8-.8 1.6 0 3 1 1.6 1 1.5.8-.7-.1-1.4.3-2.4.9-2.3.7.1 1-.6.7-1.6-.3-1.2.4-2.5 1.8-3.5 2.1-1.4 2.4-1.4 4.3.2 2.1 1.7 2.1 1.7.4-.4-2.3-2.7-2.3-3.4.2-2.9 1.1.2 1.8 0 1.5-.6-.7-1.1.7-1.2 2.1-.2.5.5.2.1-.8-.8-2.1-2-1.2-3.2 1.4-1.8 1.7.9 1.8.8.9-.9-.8-1.6-.7-2.5.9-4.4 1.1-1.2 1.9-1.8 2-1.3 0 .6-.5 1.6-1.1 2.2-.8.8-.8 1.6 0 3 1 1.6 1 1.5.8-.7-.1-1.4.3-2.4.9-2.3.7.1 1-.6.7-1.6-.6-2.4 3.7-5.7 4.9-3.8.5.8.8.6.8-.6 0-1.4-.5-1.7-2.2-1.2-2.2.6-2.2.5-.3-.7 1.1-.7 2.7-1.2 3.5-1.3.8 0 1.4-.6 1.2-1.4-.2-.9.3-1.1 1.4-.7 1.5.6 1.5.4-.1-2-1.3-2-1.4-2.9-.5-3.8.9-.8 1.1-.8.8.3-.6 2.8 1.8 2 6.1-1.9s4.5-4 6.5-2.3c2.1 1.8 2.1 1.8.4-.3-2.3-2.7-2.3-3.4.2-2.9 1.1.2 1.8 0 1.5-.6-.7-1.1.7-1.2 2.1-.2.5.5.2.1-.8-.8-2.1-2-1.2-3.2 1.4-1.8 1.7.9 1.8.8.9-.9-.8-1.6-.7-2.5.9-4.4 1.1-1.2 1.9-1.8 2-1.3 0 .6-.5 1.6-1.1 2.2-.8.8-.8 1.6 0 3 1 1.6 1 1.5.8-.7-.1-1.4.3-2.4.9-2.3.7.1 1-.6.7-1.6-.6-2.4 3.7-5.7 4.9-3.8.5.8.8.6.8-.6 0-1.4-.5-1.7-2.2-1.3-1.3.3-1.7.3-1 0 .6-.3 1-1 .7-1.4-.3-.5.6-.7 2-.4 1.7.3 2.5 0 2.5-1 0-.8.9-2.2 2.1-3 1.2-.8 1.9-1.9 1.5-2.4-.3-.5.7-.8 2.4-.7 1.6.1 2.7-.1 2.4-.6-.3-.5.1-.9.8-.9.7-.1.3-.6-1-1.3-2-1.2-2.1-1.4-.7-3.2 1-1.3 1.3-1.4 1-.4-.4 1 .3 1.9 1.8 2.6 2.2 1 2.4.9 2.1-1.2-.1-1.3-.5-2.8-.8-3.4-.4-.5-.2-1.2.3-1.5 1.1-.7 2.6 3.1 2.3 5.4-.2 1.3-.1 1.3.7.1.5-.8.7-2.1.3-2.9-.3-1-.1-1.3.6-.8.7.4 1-.1.7-1.5-.3-1.6 0-1.9 1.2-1.5 1.4.6 1.3.3-.2-2-1.3-2-1.4-2.9-.5-3.8.9-.8 1.1-.8.8.3-.6 2.8 1.8 2 6.1-1.9s4.5-4 6.5-2.3c2.1 1.8 2.1 1.8.4-.3-2.3-2.7-2.3-3.4.2-2.9 1.1.2 1.8 0 1.5-.6-.7-1.1.7-1.2 2.1-.2.5.5.2.1-.8-.8-2.1-2-1.2-3.2 1.4-1.8 1.7.9 1.8.8.9-.9-.8-1.6-.7-2.5.9-4.4 1.1-1.2 1.9-1.8 2-1.2 0 .5-.5 1.5-1.1 2.1-.8.8-.8 1.6 0 3 1 1.6 1 1.5.8-.7-.1-1.4.3-2.4.9-2.3.7.1 1-.6.7-1.6-.3-1.2.4-2.5 1.8-3.5 2.1-1.4 2.4-1.4 4.3.2 2.1 1.7 2.1 1.7.4-.4-2.3-2.7-2.3-3.4.2-2.9 1.1.2 1.8 0 1.5-.6-.7-1.1.7-1.2 2.1-.2.5.5.2.1-.8-.8-2.1-2-1.2-3.2 1.4-1.8 1.7.9 1.8.8.9-.9-.8-1.6-.7-2.5.9-4.4 1.1-1.2 1.9-1.8 2-1.2 0 .5-.5 1.5-1.1 2.1-.8.8-.8 1.6 0 3 1 1.6 1 1.5.8-.7-.1-1.4.3-2.4.9-2.3.7.1 1-.6.7-1.6-.6-2.4 3.7-5.7 4.9-3.8.5.8.8.6.8-.6 0-1.4-.5-1.7-2.2-1.3-1.3.3-1.7.3-1 0 .6-.3 1-1 .7-1.4-.3-.5.6-.7 2-.4 1.7.3 2.5 0 2.5-1 0-.8.9-2.2 2.1-3 1.2-.8 1.9-1.9 1.5-2.4-.3-.5.7-.8 2.4-.7 1.6.1 2.7-.1 2.4-.6-.3-.5.1-.9.8-.9.7-.1.3-.6-1-1.3-2-1.2-2.1-1.4-.7-3.2 1-1.3 1.3-1.4 1-.4-.4 1 .3 1.9 1.8 2.6 2.2 1 2.4.9 2.1-1.2-.1-1.3-.5-2.8-.8-3.4-.4-.5-.2-1.2.3-1.5 1.1-.7 2.6 3.1 2.3 5.4-.2 1.3-.1 1.3.7.1.5-.8.7-2.1.3-2.9-.3-1-.1-1.3.6-.8.7.4 1-.1.7-1.5-.3-1.6 0-1.9 1.2-1.5 1.4.6 1.3.3-.2-2-1.3-2-1.4-2.9-.5-3.8.9-.8 1.1-.8.8.3-.6 2.8 1.8 2 6.1-1.9s4.5-4 6.5-2.3c2.1 1.8 2.1 1.8.4-.3-2.3-2.7-2.3-3.4.2-2.9 1.1.2 1.8 0 1.5-.6-.7-1.1.7-1.2 2.1-.2.5.5.2.1-.8-.8-2.1-2-1.2-3.2 1.4-1.8 1.7.9 1.8.8.9-.9-.8-1.6-.7-2.5.9-4.4 1.1-1.2 1.9-1.8 2-1.2 0 .5-.5 1.5-1.1 2.1-.8.8-.8 1.6 0 3 1 1.6 1 1.5.8-.7-.1-1.4.3-2.4.9-2.3.7.1 1-.5.7-1.6-.2-.9.3-2.3 1.1-3 1.9-1.6 2.1-.1.4 1.9-1.1 1.2-1 1.2.3.2.9-.6 1.8-.9 2.1-.7.7.7.1-4.1-.6-5.4-.4-.5-.2-1.2.3-1.5 1.1-.7 2.6 3.1 2.3 5.4-.2 1.3-.1 1.3.7.1.5-.8.7-2.1.3-2.9-.3-1-.1-1.3.6-.8.7.4 1-.1.7-1.5-.3-1.6 0-1.9 1.2-1.5 1.4.6 1.3.3-.2-2-1.3-2-1.4-2.9-.5-3.8.9-.8 1.1-.8.8.3-.6 2.8 1.8 2 6.1-1.9s4.5-4 6.5-2.3c2.1 1.8 2.1 1.8.4-.3-2.3-2.7-2.3-3.4.2-2.9 1.1.2 1.8 0 1.5-.6-.7-1.1.7-1.2 2.1-.2.5.5.2.1-.8-.8-2.1-2-1.2-3.2 1.4-1.8 1.7.9 1.8.8.9-.9-.8-1.6-.7-2.5.9-4.4 1.1-1.2 1.9-1.8 2-1.2 0 .5-.5 1.5-1.1 2.1-.8.8-.8 1.6 0 3 1 1.6 1 1.5.8-.7-.1-1.4.3-2.4.9-2.3.7.1 1-.6.7-1.6-.3-1.2.4-2.5 1.8-3.5 2.1-1.4 2.4-1.4 4.3.2 2.1 1.7 2.1 1.7.4-.4-2.3-2.7-2.3-3.4.2-2.9 1.1.2 1.8 0 1.5-.6-.7-1.1.7-1.2 2.1-.2.5.5.2.1-.8-.8-2.1-2-1.2-3.2 1.4-1.8 1.7.9 1.8.8.9-.9-.8-1.6-.7-2.5.9-4.4 1.1-1.2 1.9-1.8 2-1.3 0 .6-.5 1.6-1.1 2.2-.8.8-.8 1.6 0 3 1 1.6 1 1.5.8-.7-.1-1.4.3-2.4.9-2.3.7.1 1-.6.7-1.6-.6-2.4 3.7-5.7 4.9-3.8.5.8.8.6.8-.6 0-1.4-.5-1.7-2.2-1.2-2 .6-2.1.5-.8-.6.8-.8 2.1-2.1 2.8-2.9 1.2-1.3 1.2-1.3.7.2-.4 1.1-.2 1.8.5 1.8.6 0 .9-.4.6-.9-.8-1.3 2.1-3.4 3.9-2.7.8.3 1.4 0 1.2-.7-.1-.7.8-1.1 2.3-1 2.2.2 2.3.2.7-.8-1.4-.8-2.2-.8-3 0-.6.6-1.6 1.1-2.1 1.1-.6-.1 0-.9 1.2-2 1.9-1.6 2.8-1.7 4.4-.9 1.7.9 1.8.8.9-.9-1.4-2.6-.2-3.5 1.8-1.4.9 1 1.3 1.3.9.8-1.1-1.4-1-2.8.1-2.1.6.3.8-.4.6-1.5-.5-2.5.2-2.5 2.9-.3 2.1 1.8 2.1 1.8.3-.3-1.7-2-1.6-2.2 2.3-6.5s4.7-6.7 1.9-6.1c-1.1.3-1.1.1-.3-.8.9-.9 1.8-.8 3.8.5 2.3 1.5 2.6 1.6 2 .2-.4-1.2-.1-1.5 1.5-1.2 1.4.3 1.9 0 1.5-.7-.5-.7-.2-.9.8-.6.8.4 2.1.2 2.9-.3 1.2-.8 1.2-.9-.1-.7-2.3.3-6.1-1.2-5.4-2.3.3-.5 1-.7 1.5-.3.6.3 2.1.7 3.4.8 2.1.3 2.2.1 1.2-2.1-.7-1.5-1.6-2.2-2.6-1.8-1 .3-.9 0 .4-1 1.8-1.4 2-1.3 3.2.7.7 1.3 1.2 1.7 1.3 1 0-.7.4-1.1.9-.8.5.3.7-.8.6-2.4-.1-1.7.2-2.7.7-2.4.5.4 1.6-.3 2.4-1.5 2.2-3.1 3.7-2.6 1.8.6-1.1 1.9-1.1 2.2-.2 1.1.8-1 1.9-1.4 2.3-1 .5.4.5.1.1-.6s-.2-1.2.5-1.2.4-.7-.7-1.6c-1.6-1.3-1.6-1.5-.1-1 .9.3 2.5.9 3.5 1.2.9.3.7-.1-.6-.8-2.7-1.7-1.8-3.2 1-1.7 1.1.6 2.2.8 2.5.6.2-.3-.5-.8-1.6-1.2-2.7-.8-2.7-2-.1-2.2 1.1-.1 1.8.2 1.6.6-.3.4.1.8.8.8.8 0 1.3-.7 1.1-1.6-.1-.9-1-1.5-1.8-1.3-1.1.2-1.5-.2-1.1-1.3.3-.8 1-1.3 1.4-1 .5.3 1.1.1 1.5-.5.3-.5 1.2-1 1.8-1 .7 0 .6.4-.3 1-1.3.9-1.3 1.1 0 2 .8.5 2 .9 2.5.9.6 0 .4-.3-.2-.6-1.9-.7-1.6-1.6.8-3.2 1.9-1.1 2.1-1.1 1.6.3-.3.8-.2 1.8.4 2.1.5.4.6 1.1.3 1.7-.4.7-.2.8.5.4.8-.5.9-1.2.2-2s-.1-1.6 2-2.9c3-1.7 3-1.7 6.1 1.6l3.1 3.2-2.2-3.3c-2.7-3.9-1.1-4.3 1.9-.5 1.6 2.2 1.9 2.3 1 .5-1.3-2.6-.3-2.9 1.6-.5 1.3 1.7 1.4 1.7.8 0-.6-1.7-.5-1.8 1.4-.6 1.1.7 1.9 1.6 1.7 1.9-.2.3.6.7 1.8.7 1.8.2 1.6-.1-1.1-1.9-3.4-2.1-3.8-3.7-.5-2 1 .5 2.4.7 3.2.4 1-.3 1.1 0 .5.9-.7 1.2-.5 1.2.9 0 1.9-1.5 2.4-.2.6 1.6-.9.9-.7 1.1.7.9 1.2-.2 1.8-1 1.6-2.2-.3-1.5-.1-1.7.9-.7 1.5 1.5 3.9 1.7 3.9.3 0-.5-.8-.6-1.7-.3-1.6.6-1.6.5-.4-1.1 1.4-1.7 1.6-1.7 2.7-.1.7.9 1.1 2.2 1 2.8-.2.7-.1.9.1.4.3-.4.9-.7 1.4-.7.6 0 .8.4.5.8-.2.4.5.9 1.7.9 2 .2 1.9 0-.5-1.5-3-1.8-3.9-3.8-1-2.4.9.5 2.3.7 3.1.4 1-.3 1.1 0 .5.9-.7 1.2-.5 1.2.9 0 1.5-1.2 1.8-1 2.7 1 1 2.3 1 2.3.6.2-.2-1.2.2-2.7 1-3.4 1.1-.9 1.3-.5.9 2-.2 1.7.1 3.1.6 3.1.6 0 .7-.9.3-2.2-.6-2.1-.6-2.2 1.2-.8 1 .8 2.2 1.9 2.6 2.5.5.7.8.6.8 0s-.5-1.6-1.2-2.3c-1.7-1.7-.2-1.5 2.6.4 1.5.9 2.6 1.1 3 .5.4-.6 1.3-.8 2.1-.4.8.3 1.5 0 1.5-.7 0-.6-.4-.8-1-.5-.5.3-1 0-1-.7 0-.8.9-1.4 2-1.5 1.1-.1 1.8.2 1.5.7-.3.4.2 1 1 1.4 2.2.8 1.4-1.7-1-3.1-1.1-.6-1.9-1.5-1.7-2 .6-1.4 4.5-3.1 6.1-2.6 1.1.3 1 .1-.2-.7-1.5-1-1.6-1.4-.5-2.8 1-1.2 1-1.4.1-.8-.8.4-1.3.1-1.3-.9 0-1.2.4-1.4 1.9-.5 1.5.7 2.2.7 2.7-.2.4-.7.3-1-.1-.5-.5.4-1.9 0-3.2-.8-2.8-1.9-5-1.1-3.2 1.1.6.8.8 1.4.3 1.4s-.2.5.6 1c.9.6 1 1 .3 1-.6 0-1.5-.5-1.8-1-1-1.6-4.8.9-4.1 2.6.4 1 .2 1.2-.6.8-.7-.5-.8-.3-.3.6.5.9.4 1.1-.3.6-.8-.5-1-.1-.5 1 .5 1.3.2 1.6-.9 1.2-.9-.4-2.1-.1-2.8.5-1 .9-1.1.9-.6-.3.5-1 .3-.9-.7.2-1.1 1.4-1.6 1.5-2.7.5-1-.9-1.1-.9-.6 0 .4.8 0 1.1-1.4.8-1.3-.3-1.8 0-1.4.7.4.7.2.8-.5.4-.6-.4-.9-1.2-.6-1.7 1.1-1.6-.7-1-2.2.8-.8 1-1.2 1.3-.9.6.4-.6.1-1.5-.5-1.9-.7-.4-.9-.3-.6.2.3.6.2 1.6-.4 2.4-.6 1.1-.9 1.2-.9.2 0-.7-.4-1.1-.9-.7-.5.3-1.2.1-1.5-.4-.3-.5-1.9-.7-3.6-.6-1.6.1-2.8-.1-2.5-.5.2-.4-.6-.7-1.8-.6-1.6.1-2.1.7-1.9 2.1.2 1.6.1 1.7-.7.5-1.1-1.6-5.4-2.4-4.5-.8.4.6-.2.5-1.3-.1s-2.4-.7-2.8-.3c-.5.4-.5.1 0-.7.5-1 .4-1.2-.4-.7-.6.4-2.4.9-3.9 1.2-2.1.3-2.4.2-1.2-.7 1.3-.9 1.3-1 0-.6-.8.2-1.4 1-1.3 1.6.2.6-.2 1.1-.7 1.1-.6 0-1-.5-1-1.1 0-.6-.6-.9-1.2-.6-.7.2-1.2 1-1.1 1.6.2.6-.2 1.1-.8 1.1-.6 0-.8-.8-.5-1.8.5-1.4.3-1.3-1 .3-1.2 1.5-1.5 1.6-1.1.3.4-1.1.1-1.5-1.1-1.3-.9.1-2.3-.3-3.1-.9-1.2-.9-1.3-.8-.7.3.7 1 .4 1.2-1.2.7-1.5-.5-2.4-.1-3.2 1.4-.7 1.2-1.8 1.9-2.6 1.6-.8-.3-1.3 0-1.1.7.2 1.2-.4 1.3-3.8.2-1.5-.5-1.3-.2.5 1 1.4.9 1.7 1.4.7 1.1-1.2-.4-1.6-.2-1.2.7.4.6-.1.3-.9-.7-.9-1.1-1.6-1.5-1.6-1 0 .6.6 1.6 1.3 2.4 1 1.2.9 1.2-.8 0-1.7-1.2-1.8-1.2-.7 0 1.7 2 1.5 3.1-.5 2.8-1-.2-1.7.2-1.6.9.2.8-.4 1-1.5.7-1.5-.5-1.5-.4-.2.6s1.2 1.1-.4.6c-1.1-.4-2.3-.1-2.7.6-.4.7-1.1.9-1.5.5-.8-.8 11-12.7 12.6-12.7.6 0 .9-.4.5-.9-.3-.5 0-1.3.7-1.8.7-.4 15-.9 31.8-1 36.1-.4 35.2-.3 33.7-2.2-.8-1-.9-1.3-.1-.8.7.4 2.2-.9 3.6-3.1l2.4-3.7-.1-36c0-35.1-.1-36.1-2.2-39.5-4.4-7.1-3.9-7-44.5-7-33.9 0-36.5.1-39.2 1.9zm55.2 44.4l.4 15.9-15.9-.4-15.8-.3v-31.1l15.5.1h15.5l.3 15.8zm32.1 43.6c-1.7.8-2.7 1.7-2.2 2 1.2.9 1.5 3.4.3 2.6-.5-.3-1.5.5-2.1 1.9-1.1 2.3-1.3 2.4-3.4 1-1.2-.8-3-1.2-3.9-.8-1 .4-1.6.1-1.6-.7 0-.7.3-.9.6-.6.4.3 1.6.1 2.8-.5 1.1-.7 2.6-1.2 3.1-1.3 1.3 0 6.5-5 6.5-6.1 0-.5-.4-.2-1 .6-.5.8-1.2 1.1-1.7.7-1.3-1.4 1.9-2.6 3.8-1.4 1.6 1 1.5 1.2-1.2 2.6zm-32.4 5.1c.4.6 1.2.7 1.8.4.7-.4.8-.3.4.1-1.3 1.5-3.5 1.4-4.1-.1-.6-1.6 1-1.9 1.9-.4zm-27.8 1.5c-.2.5-1.2 1-2.3 1.1-1 .1-2.2.2-2.6.4-.5.1-1.3.3-1.8.4-1.5.2-3 2.8-2.3 4 .3.5.2.6-.3.3s-2.9 1.6-5.3 4.3c-2.4 2.7-4.9 4.6-5.6 4.4-.7-.3-1.6-.1-2 .5-.3.6 0 1.1.7 1.1.9 0 .9.3-.2 1s-1.1 1-.2 1c.7 0 1 .5.7 1.1-.5.6-1.1.5-1.8-.6-1.1-1.4-1.4-1.4-3.5 0-2.4 1.8-3 4-.8 3.2 1.6-.6 2.8.2 2 1.4-.3.5-1.3.5-2.4-.1-2.5-1.3-4.9 1.4-2.4 2.8 1.1.6 1.3 1.1.5 1.6-.6.4-1.1.1-1.1-.6s-.5-.5-1.2.6c-1 1.8-1.2 1.8-2.3.3-1.1-1.6-1.3-1.5-3 .2-.9 1.1-1.4 2.5-1 3.1.6.9 1 .9 1.6-.1.5-.9.9-1 .9-.3s-1.5 2.5-3.4 4.2c-1.9 1.7-3.2 3.2-2.9 3.5.3.3-.9 1.3-2.6 2.2-3.1 1.5-3.1 1.5-5.1-1.7-1.1-1.8-2-2.8-2-2.2 0 .6.9 2.3 2.1 3.8 1.6 2 1.8 3 1 4-.6.7-.7 1.7-.3 2.1.4.5.2.5-.4.2-1.2-.7-8.1 3.9-7.6 5.1.1.4-.1.7-.5.8-2.2.2-4.2 1.7-3.6 2.7.3.6.1.7-.5.3-.7-.4-1.3-.2-1.3.3-.1.6-.2 1.5-.3 2-.1 1.3-2.6 3.7-2.6 2.6 0-.5-1.1.6-2.5 2.5-1.3 1.8-2.2 3.8-1.8 4.4.3.6.3.8-.2.4-.4-.4-1.4-.3-2.2.3-1 .9-1.8.8-3.2-.5-1.4-1.3-1.8-1.4-1.8-.2 0 .8.3 1.5.6 1.4 3.6-.4-.4 6.2-4.4 7.2-1.7.5-5.5 6.2-4.8 7.4.3.6.3.8-.2.4-.4-.4-1.4-.3-2.1.3-1 .8-2 .6-4-1-1.5-1.2-3.2-2.1-3.8-2.1-.6 0 .4.9 2.2 2 3.2 2 3.2 2 1.7 5.1-.9 1.7-1.9 2.9-2.2 2.6-.3-.3-1.8 1-3.5 2.9s-3.5 3.4-4.2 3.4c-.7 0-.6-.4.3-.9 1-.6 1-1 .1-1.6-.6-.4-2 .1-3.1 1.1-1.8 1.6-1.8 1.8-.3 2.7 1.6.9 1.6 1.1-.1 2.3-1.1.8-1.3 1.4-.6 1.4.7 0 .9.5.6 1.1-.5.6-1.1.4-1.9-.6-1.1-1.5-1.3-1.5-2.5-.1-1.1 1.3-1.1 1.9 0 3.3.7 1 .9 1.5.4 1-.4-.4-1.7 0-2.7 1-1 .9-1.8 1.2-1.8.8 0-.5-1.1.6-2.5 2.5-1.3 1.8-2.2 3.8-1.8 4.4.3.6.3.8-.2.4-.4-.4-1.4-.3-2.1.3-1 .8-2 .6-4-1-1.5-1.2-3.2-2.1-3.8-2.1-.6 0 .4.9 2.2 2 3.2 2 3.2 2 1.7 5.1-.9 1.7-1.9 2.9-2.2 2.6-.3-.3-1.8 1-3.5 2.9s-3.5 3.4-4.2 3.4c-.7 0-.6-.4.3-.9 1-.6 1-1 .1-1.6-.6-.4-2 .1-3.1 1.1-1.8 1.6-1.8 1.8-.3 2.7 1.6.9 1.6 1.1-.1 2.3-1.1.8-1.3 1.4-.6 1.4.7 0 .9.5.5 1.1-.5.8-1 .6-1.6-.5-1.4-2.5-4.1-.1-2.8 2.4 1 1.8.3 3.3-1.1 2.4-.4-.2-.6-1.1-.2-1.9.8-2.3-1.4-1.8-3.2.7-1.4 2.1-1.4 2.4 0 3.5 1.1.7 1.2 1.3.6 1.8-.6.3-1.1 0-1.1-.7 0-.9-.3-.9-1 .2s-1 1.1-1 .2c0-.7-.5-1-1.1-.7-.6.4-.8 1.3-.5 2.1.3.7-.6 2.2-1.9 3.2-1.3 1.1-2.2 2.2-1.8 2.5.3.3-.6.4-2.1.1-1.8-.3-2.6 0-2.7 1.1-.1.8-.2 1.9-.3 2.4-.1 1.3-2.6 3.7-2.6 2.6 0-.5-1.1.6-2.5 2.5-1.3 1.8-2.2 3.8-1.8 4.4.3.6.3.8-.2.4-.4-.4-1.4-.3-2.2.3-1 .9-1.8.8-3.2-.5-1.4-1.3-1.8-1.4-1.8-.2 0 .8.3 1.5.6 1.4 3.6-.4-.4 6.2-4.4 7.2-1.7.5-5.5 6.2-4.8 7.4.3.6.3.8-.2.4-.4-.4-1.4-.3-2.1.3-1 .8-2 .6-4-1-1.5-1.2-3.2-2.1-3.8-2.1-.6 0 .4.9 2.2 2 3.2 2 3.2 2 1.7 5.1-.9 1.7-1.9 2.9-2.2 2.6-.3-.3-1.8 1-3.5 2.9s-3.5 3.4-4.2 3.4c-.7 0-.6-.4.3-.9 1-.6 1-1 .1-1.6-.6-.4-2 .1-3.1 1.1-1.8 1.6-1.8 1.8-.3 2.7 1.6.9 1.6 1.1-.1 2.3-1.1.8-1.3 1.4-.6 1.4.7 0 .9.5.5 1.1-.5.8-1 .6-1.6-.5-1.4-2.5-4.1-.1-2.8 2.4 1 1.8.3 3.3-1.1 2.4-.4-.2-.6-1.1-.2-1.9.8-2.3-1.4-1.8-3.2.7-1.4 2.1-1.4 2.4 0 3.5 1.1.7 1.2 1.3.6 1.8-.6.3-1.1 0-1.1-.7 0-.9-.3-.9-1 .2s-1 1.1-1 .2c0-.7-.5-1-1.1-.7-.6.4-.8 1.3-.5 2.1.3.7-.6 2.2-1.9 3.2-1.3 1.1-2.2 2.2-1.8 2.5.3.3-.6.4-2.1.1-1.8-.3-2.6 0-2.7 1.1-.1.8-.2 1.9-.3 2.4-.1 1.3-2.6 3.7-2.6 2.6 0-.5-1.1.6-2.5 2.5-1.3 1.8-2.2 3.8-1.8 4.4.3.6.3.8-.2.4-.4-.4-1.4-.3-2.1.3-1 .8-2 .6-4-1-1.5-1.2-3.2-2.1-3.8-2.1-.6 0 .4.9 2.2 2 3.2 2 3.2 2 1.7 5.1-.9 1.7-1.9 2.9-2.2 2.6-.3-.3-1.8 1-3.5 2.9s-3.5 3.4-4.2 3.4c-.7 0-.6-.4.3-.9 1-.6 1-1 .1-1.6-.6-.4-2 .1-3.1 1-1.8 1.7-1.8 1.9-.1 3.1 1.6 1.2 1.6 1.3-.1 2-1.5.5-1.6.9-.5 1.6 1 .8.9.9-.4.4-1-.3-2-.1-2.3.5-.4.5-1.1.7-1.6.4-.5-.4-1-.1-1 .4-.1.6-.2 1.5-.3 2-.1 1.3-2.6 3.7-2.6 2.6 0-.5-1.1.6-2.5 2.5-1.3 1.8-2.2 3.8-1.8 4.4.3.6.3.8-.2.4-.4-.4-1.4-.3-2.2.3-1 .9-1.8.8-3.2-.5-1.4-1.3-1.8-1.4-1.8-.2 0 .8.3 1.5.6 1.4 1.8-.2 2 .4 1 2.4-1.2 2.3-5.2 5.7-5.6 4.8-.1-.3-1.3 1-2.7 2.9-1.4 1.9-2.3 3.9-1.9 4.5.3.6.3.8-.2.4-.4-.4-1.4-.3-2.1.3-1 .8-2 .6-4-1-1.5-1.2-3.2-2.1-3.8-2.1-.6 0 .4.9 2.2 2 3.2 2 3.2 2 1.7 5.1-.9 1.7-1.9 2.9-2.2 2.6-.3-.3-1.8 1-3.5 2.9s-3.5 3.4-4.2 3.4c-.7 0-.6-.4.3-.9 1-.6 1-1 .1-1.6-.6-.4-2 .1-3.1 1.1-1.8 1.6-1.8 1.8-.3 2.7 1.6.9 1.6 1.1-.1 2.3-1.1.8-1.3 1.4-.6 1.4.7 0 .9.5.6 1-.4.6-1.4.1-2.5-1.2-1.8-2.2-1.9-2.2-3.7-.5-1.7 1.8-1.7 1.9.7 3.9 1.4 1.2 1.8 1.9 1 1.6-.8-.2-2.3.6-3.3 1.8-1 1.3-2.4 2.1-3.1 1.8-.8-.3-1.7-.1-2.1.5-.3.6 0 1.1.7 1.1.9 0 .9.3-.2 1s-1.1 1-.2 1c.7 0 1 .5.7 1.1-.5.6-1.2.4-2-.7-1.1-1.6-1.4-1.6-3.9.9-1.5 1.5-2.4 3.2-2 3.9.4.7.3.8-.4.4-1.1-.6-1.6.5-1.4 2.6.1.3-.5 1.2-1.3 1.8-.8.7-1.5.9-1.5.4 0-.4-1.1.7-2.5 2.6-1.3 1.8-2.2 3.8-1.8 4.4.3.6.3.8-.2.4-.4-.4-1.4-.3-2.2.3-1 .9-1.8.8-3.2-.5-1.4-1.3-1.8-1.4-1.8-.2 0 .8.3 1.5.6 1.4 1.8-.2 2 .4 1 2.5-1.3 2.3-3.9 4.6-5.1 4.3-1.3-.2-5.8 6.7-5.1 7.8.3.6.3.8-.2.4-.4-.4-1.4-.3-2.1.3-1 .8-2 .6-4-1-1.5-1.2-3.2-2.1-3.8-2.1-.6 0 .4.9 2.1 2 3 1.8 3.2 2.2 2.1 4.4-.6 1.4-1.4 2.3-1.9 2.1-1.3-.9-2.1 1.5-.9 2.9 1.4 1.8-.8 2.7-3.4 1.4-1.2-.7-1.6-.7-1.2 0 .3.6-1.1 2.3-3.3 3.8-3.2 2.3-3.7 3.1-2.8 4.5 1 1.6 1.2 1.6 2.4.1s1.2-1.3.2.8c-1.8 3.5-2 5.2-.5 4.7 1.5-.6 1.8 2.3.4 4-.5.6-.5 1.4 0 1.7 1.7 1 1.2 7.3-.8 9.1-1.1 1-1.7 2.1-1.5 2.6.3.4 0 1.1-.6 1.5-.8.4-.7.9.2 1.5 1.1.7 1.1.9.1.9s-1 .3 0 1.4c.7.8 1.7 1.1 2.3.8.5-.3-.1 1.1-1.3 3.1-2 3.4-1.8 4.3 1.1 3.8.4 0 .7.4.7 1s-.7.8-1.6.5c-1-.4-1.3-.2-.8.6.4.6.3.8-.2.5-.6-.3-1.1.3-1.1 1.4-.1 1 .3 1.9.8 1.9.6 0 .8-.4.4-.9-.7-1.3 1.2-2.4 2.7-1.5.7.5.5 1.1-.7 2.1-1.1.7-1.5 1.3-1.1 1.3.4 0 .4.6-.1 1.3-1.3 2.1-1.2 3.8.2 3.5.8-.2 1.4.1 1.5.7.1.5.9 1.9 1.8 2.9 1.6 1.8 1.6 1.9-1.1 1.2-1.5-.3-2.7-.3-2.6.1.1.5 0 1.2-.1 1.8-.1.5-.3 1.7-.4 2.5 0 .8-.9 1.4-1.8 1.2-1.2-.2-1.6.3-1.3 1.8.5 2.5.5 2.5-3.1-.3-2.9-2.1-4-5.4-1.6-5 .6.2 1.6-.6 2.2-1.7.7-1.3 1.6-1.7 2.8-1.3 1.5.6 1.5.5.3-1.1-.9-1.1-1.1-2-.5-2.4.6-.4.9-11.9.9-29.7-.1-16 .3-29.5.8-30.2.4-.6 1.6-.9 2.4-.6.9.4 1.4.2 1-.3-.8-1.3 1-4.1 2-3.1.4.5.1 1.3-.7 1.8-1.3.9-1.3 1 0 .6.8-.2 1.4-1.2 1.3-2.2-.2-2.3 16.2-18.6 18-17.9.7.2 2.2-.4 3.2-1.6 2.1-2.4 1.4-2.7-1-.4-.9.9-1.9 1.4-2.2 1-1-1 14.6-15.6 16.1-15 .7.3 1.9-.2 2.6-1.1.7-.9.8-1.5.2-1.5-.6 0-1.2.6-1.5 1.2-.2.7-.8 1-1.2.6-1.2-1.1 6.1-7.9 7.8-7.2.8.3 1.8.1 2.2-.5.4-.8 1.2-.8 2.5-.1 1.3.7 2.1.7 2.5 0 .4-.6 1.2-.7 1.8-.3.7.4.6 0-.2-1-1.1-1.4-1.1-1.7 0-1.7s1.1-.2-.1-.9c-1.6-1.1-3.3-.4-2.5 1 .3.5-.2.6-1.2.3-1.5-.5-1.6-.4-.3.6s1.2 1.1-.4.6c-1.1-.4-2.3-.1-2.7.6-.4.7-1.1.9-1.5.5-.8-.8 11-12.7 12.7-12.7.7 0 .9-.3.6-.7-.9-.9 1.3-3.4 2.4-2.7.5.3.9 0 .9-.6 0-1.9 21.9-23 23.3-22.4.7.2 2.2-.4 3.2-1.6 2.1-2.4 1.4-2.7-1-.4-.9.9-1.9 1.4-2.2 1-.7-.7 16.9-18.2 18-17.8.4.1.7-.4.7-1.1 0-1.7 4.4-5.9 5.3-5 .4.3.7.1.7-.6 0-1.6 31.9-33.5 32.8-32.7.3.4.1 1.1-.6 1.5-.7.4-1 1.6-.6 2.7.5 1.6.4 1.7-.6.4-1-1.3-1.1-1.3-.6.2.3 1.1.1 1.7-.7 1.5-.7-.1-1.1.6-.9 1.5.3 2.1-.8 2.3-2.8.5-1.2-1-1.2-.9 0 .6.7 1 1.9 1.6 2.7 1.3.9-.4 1.1-.1.7.6-.4.7-.3.8.4.4.6-.4.8-1.4.5-2.4-.6-1.5-.5-1.6 1.2-.2 1 .8 1.6 1 1.2.3-.4-.6-.3-1.4.3-1.8.7-.4.7-1.2 0-2.5s-.7-2.1.1-2.5c.6-.4.8-1.4.5-2.2-.7-1.7 6.1-9 7.2-7.8.4.4.1 1-.5 1.2-.7.3-1.3.9-1.3 1.5s.6.5 1.5-.2 1.3-2.1 1-3.1c-.4-1.2.1-1.9 1.5-2.4 1.2-.4 1.9-.9 1.6-1.2-.9-.9 1.5-3.4 2.5-2.7.5.3.9 0 .9-.6 0-1.9 21.9-23 23.3-22.4.7.2 2.2-.4 3.2-1.6 2.1-2.4 1.4-2.7-1-.4-.9.9-1.9 1.4-2.2 1.1-.3-.4 5.2-6.3 12.1-13.3 7-6.9 13-12.3 13.4-12 .3.4.1 1.1-.6 1.5-.7.4-1 1.6-.6 2.7.5 1.6.4 1.7-.6.4-1-1.3-1.1-1.3-.6.2.3 1.1.1 1.7-.7 1.5-.7-.1-1.1.6-.9 1.5.3 2.1-.8 2.3-2.8.5-1.2-1-1.2-.9 0 .6.7 1 1.9 1.6 2.7 1.3.9-.4 1.1-.1.7.6-.4.7-.3.8.4.4.6-.4.8-1.4.5-2.4-.6-1.5-.5-1.6 1.2-.2 1 .8 1.6 1 1.2.3-.4-.6-.3-1.4.3-1.8.7-.4.7-1.2 0-2.5s-.7-2.1.1-2.5c.6-.4.8-1.4.5-2.2-.7-1.7 6.1-9 7.2-7.8.4.4.1 1-.5 1.2-.7.3-1.3.9-1.3 1.5s.6.5 1.5-.2 1.3-2.1 1-3.1c-.4-1.2.1-1.9 1.5-2.4 1.1-.4 1.8-1 1.5-1.5-.6-1 2-3.2 2.8-2.3.4.3.7.1.7-.6 0-2 21.9-23.1 23.3-22.5.8.3 2-.2 2.7-1.1.7-.9.8-1.5.2-1.5-.6 0-1.2.6-1.5 1.2-.2.7-.8 1-1.2.6-.9-.9 6.5-8.9 7.6-8.2.5.3.9 0 .9-.6 0-1.9 21.9-23 23.3-22.4.7.2 2.2-.4 3.2-1.6 2.1-2.4 1.4-2.7-1-.4-.9.9-1.9 1.4-2.2 1-.3-.3 3.3-4.4 8.1-9.2 4.8-4.8 9-8.3 9.4-8 .3.4.1 1.1-.6 1.5-.7.4-1 1.6-.6 2.7.5 1.6.4 1.7-.6.4-1-1.3-1.1-1.2-.6.3.3 1 .2 1.5-.3 1.2-.5-.3-1.2-.1-1.6.5-.4.6-1.1.7-1.7.4-.7-.4-.8-.2-.4.5.4.6 1.2.9 1.7.6.5-.4.9-.1.9.4 0 1.5-1.3 1.4-2.9-.2-1.1-.9-1.2-.9-.7 0 .9 1.5 4.7 3.7 4.5 2.6-.1-.4-.1-1.4 0-2.2.1-1.1.4-1.1 1.8 0 1 .8 1.4.9 1 .2-.4-.6-.3-1.4.3-1.8.7-.4.7-1.2 0-2.5s-.7-2.1.1-2.5c.6-.4.8-1.3.5-2.1C493 249.9 514 228 516 228c.6 0 .9-.4.6-.9-.7-1 1.8-3.4 2.7-2.5.3.3.8-.4 1.2-1.6.5-1.4 1.2-1.9 2.4-1.5 1 .3 2.4-.1 3.1-1 .7-.9.8-1.5.2-1.5-.6 0-1.2.6-1.5 1.2-.2.7-.8 1-1.2.6-1.2-1.1 6.1-7.9 7.8-7.2.8.3 1.8 0 2.2-.5.3-.6 1.1-.9 1.6-.5 1.3.8 4-1.6 3.2-2.9-.3-.6-.1-.7.5-.3 1 .6 3.7-1.4 10.6-7.9 2.1-2.1 8.9-2.9 8.3-1zm16.8-.6c-.8.7-4.5.9-5 .1-.2-.3.9-.6 2.5-.6 1.7 0 2.7.2 2.5.5zm6.5-.5c0 .3-.4.8-1 1.1-.5.3-1 .1-1-.4 0-.6.5-1.1 1-1.1.6 0 1 .2 1 .4zm19.4.4c.3.5-.1.9-.9.9s-1.2-.4-.9-.9c.3-.4.7-.8.9-.8.2 0 .6.4.9.8zM513 243.4c0 .3-.4.8-1 1.1-.5.3-1 .1-1-.4 0-.6.5-1.1 1-1.1.6 0 1 .2 1 .4zm-28 28c0 .3-.4.8-1 1.1-.5.3-1 .1-1-.4 0-.6.5-1.1 1-1.1.6 0 1 .2 1 .4zm-16 16c0 .3-.4.8-1 1.1-.5.3-1 .1-1-.4 0-.6.5-1.1 1-1.1.6 0 1 .2 1 .4zm-32 32c0 .3-.4.8-1 1.1-.5.3-1 .1-1-.4 0-.6.5-1.1 1-1.1.6 0 1 .2 1 .4zm-48 48c0 .3-.4.8-1 1.1-.5.3-1 .1-1-.4 0-.6.5-1.1 1-1.1.6 0 1 .2 1 .4zm-16 16c0 .3-.4.8-1 1.1-.5.3-1 .1-1-.4 0-.6.5-1.1 1-1.1.6 0 1 .2 1 .4zm-48 48c0 .3-.4.8-1 1.1-.5.3-1 .1-1-.4 0-.6.5-1.1 1-1.1.6 0 1 .2 1 .4zm-32 32c0 .3-.4.8-1 1.1-.5.3-1 .1-1-.4 0-.6.5-1.1 1-1.1.6 0 1 .2 1 .4zm-16 16c0 .3-.4.8-1 1.1-.5.3-1 .1-1-.4 0-.6.5-1.1 1-1.1.6 0 1 .2 1 .4zm-48 48c0 .3-.4.8-1 1.1-.5.3-1 .1-1-.4 0-.6.5-1.1 1-1.1.6 0 1 .2 1 .4zm-16 16c0 .3-.4.8-1 1.1-.5.3-1 .1-1-.4 0-.6.5-1.1 1-1.1.6 0 1 .2 1 .4zm-49.2 27.9l.3 14.7H153c-8.6 0-10.9-.3-10.4-1.3.6-.9.4-.9-.7-.1-.8.7-2.7 1.1-4.4 1l-3-.2v-28.9h29l.3 14.8z"/><path d="M555.9 135.7c-.6 1.3-.4 3 .4 4 .5.8.6 1.3 0 1.3-.5 0-.8 5.3-.8 11.8 0 8.6.3 11.9 1.2 11.9.7 0 1-.4.7-.9-.8-1.2 1-1 2.4.4.9.9 1.5.9 2.5-.1s.8-1.2-.7-.9c-1 .1-2.1-.3-2.3-1-.3-.8.1-1 1.4-.5 1.1.4.6-.4-1.2-2.1-2.6-2.3-2.7-2.6-.8-2.1 1.7.5 2.2.2 2-1.3-.1-1.3-.6-1.8-1.7-1.4-.8.3-1.2.2-.8-.3.4-.4.3-1.4-.3-2.2-1.5-1.8-.4-1.7 2.6.3 2.2 1.4 2.3 1.4 2-.3-.2-1-.4-2.1-.4-2.6-.1-.4-.7-.7-1.4-.7s-1.8-.9-2.4-1.9c-1-1.6-.9-2 .3-2.5.9-.3 1.2-.1.9.4-.3.6-.1 1 .4 1 .6 0 1.1-.7 1.1-1.5s.5-1.5 1.1-1.5c.6 0 .9.9.6 2-.3 1.1-.1 1.7.4 1.4.6-.3.9-1.3.8-2.2-.3-2.4 1.1-5.3 2.3-4.6.5.3.4 1.1-.3 2-.8 1-.8 1.4 0 1.4.6 0 1.1-.6 1.1-1.3 0-.8.4-.7 1 .3.5.8 1 1 1 .4 0-.5-.5-1.5-1.2-2.2-.9-.9-.9-1.2 0-1.2.6 0 1.6.8 2.2 1.7 1 1.7 1 1.7.8-.1-.2-1 .3-2.1 1.1-2.4.8-.2 1.1 0 .8.5-.3.5-.1 1.5.5 2.3.8 1.2.9 1.2.5-.2-.4-1.2 0-1.6 1.4-1.5 1 .1 1.9.6 1.9 1.2 0 .5.5.3 1.1-.5.9-1.2 1-1.1.6.8-.3 1.2-.1 2 .4 1.6.5-.3.9-1.1.9-1.8 0-.8.7-1.9 1.5-2.6 1.8-1.5 2 .1.3 1.9-1 1.1-1 1.3 0 .7.7-.4 1.2-.2 1.2.5 0 2.4 1.1 0 1.5-3.2.3-2.5.2-3-.5-1.9-.9 1.3-1 1.3-1 0s-.1-1.3-1 0c-.5.8-1 1-1 .4 0-.5-1.1-1-2.4-1-1.4 0-2.3.3-2 .7.5.8-2.7 2.2-3.4 1.4-.3-.3 0-.5.6-.5.7 0 1.2-.4 1.2-.8 0-.5-.7-.9-1.5-.9s-1.2.4-.9.9c.3.4 0 .8-.5.8-.6 0-1.1-.5-1.1-1.2 0-.6-.6-.3-1.4.8-.8 1-1.8 1.6-2.2 1.1-.4-.4-.2-.7.4-.7.7 0 1.2-.4 1.2-.8 0-.5-.7-.9-1.5-.9s-1.2.4-.9.8c.2.4 0 1-.6 1.4-.5.3-1-.2-1-1.2 0-1.5-.2-1.6-1-.3s-1 1.3-1 .1c0-1.1-.4-.9-1.4.5-1.2 1.6-1.7 1.7-2.8.6-1.1-1.1-1-1.2.5-.7.9.4 1.7.3 1.7-.2 0-.8-4.8-1.4-5.1-.6zm5.4 2.5c.8-.7 1.8-.7 2.7-.2 1.1.7 1.2 1 .2 1-.7 0-1.1.4-.7 1 .3.5-.8 1.6-2.5 2.5-1.6.8-3 1.2-3 .8 0-.5-.5-.1-1 .7-.5.8-1 1-1 .5 0-.6.4-1.7.9-2.5.6-.8.7-1.9.3-2.5-1.5-2.4-1-3.7.9-1.9 1.4 1.2 2.2 1.4 3.2.6zm19.2-.4c-.9.9-3.5 1.1-3.5.3 0-1.4 1.2-2 2.6-1.4.8.3 1.2.8.9 1.1zm-19.1 14.1c-.5.6-4.9-3.4-5.2-4.8-.1-.7 1.1 0 2.7 1.6 1.6 1.5 2.7 3 2.5 3.2zm-3.8 2.6c.1.8-.1 1.7-.5 1.9-.4.3-.7-.6-.7-1.9 0-2.5.8-2.5 1.2 0zm.3 4.9c.8 1 .8 1.6-.2 2.4-1 .9-1.3.6-1.3-1.3 0-2.9 0-2.9 1.5-1.1z"/><path d="M557.8 139.1c.6.9.9 1.8.6 2.2-.3.3.2.4 1.1.3 1-.1 2.2-1.1 2.7-2.2.9-1.7.8-1.8-.5-.2s-1.5 1.6-3.2 0c-1.5-1.3-1.6-1.3-.7-.1zM575 142c0 .5.5 1 1.1 1 .5 0 .7-.5.4-1-.3-.6-.8-1-1.1-1-.2 0-.4.4-.4 1zM570.6 144.2c.3.5 1 .6 1.5.3 1.3-.9 1.1-1.2-.6-1.2-.8 0-1.2.4-.9.9zM561 159.4c0 .2.7.7 1.6 1 .8.3 1.2.2.9-.4-.6-1-2.5-1.4-2.5-.6zM613.5 198.1c-.4.6-1.3.8-2.1.5-.7-.3-1.6 0-2 .6-.4.6-.3.8.4.4.5-.3 1.2-.1 1.4.5.2.6 1.2.1 2.2-1 1.1-1.2 1.6-2.1 1.3-2.1-.3 0-.9.5-1.2 1.1zM545.5 205.8c-1.1.9-2.7 2.6-3.5 3.7-.8 1.1.3.4 2.3-1.4 3.3-3.1 4.2-4.2 3.5-4.1-.2.1-1.2.8-2.3 1.8zM538.1 212.4c-.7.8-.8 1.7-.3 2 .6.3 1.5-.1 2.1-.8.7-.8.8-1.7.3-2-.6-.3-1.5.1-2.1.8zM533.5 214.1c-.4.5-1.2.8-1.9.6-.7-.3-2.3.3-3.7 1.3-2.1 1.7-2.2 1.9-.6 2.5 1.5.6 1.4.9-.8 2.7-1.4 1-2.9 1.7-3.4 1.3-.6-.3-1.5.4-2.1 1.5-.6 1.1-1.6 1.9-2.2 1.7-.7-.1-1.2.3-1.3.9 0 1.1-3 4.5-3.9 4.5-.3 0-1.9 1.3-3.5 2.9-1.6 1.7-2.5 3-2 3 .6 0 .8.4.5.9-1 1.5 1.8 4.1 3.4 3.1.8-.5 1.1-1.2.7-1.7-.5-.4-1.2-.1-1.7.7-.6.9-1 1-1 .3 0-2 2-2.6 3.7-1.1.9.7 1.4.8 1 .2-.3-.6.7-2.1 2.4-3.3 1.6-1.2 2.7-2.6 2.4-3.2-.4-.5-1.1-.7-1.6-.4-2 1.3-.7-1.3 2-3.9 2.7-2.6 3-2.7 4-.9.6 1 1.1 1.2 1.1.5 0-2.4.2-2.7 1.7-4.5.9-.9 1.3-1.7.9-1.7s.6-1.2 2.3-2.6c1.8-1.5 3.6-2.2 4.3-1.8.7.4 1 .4.6-.1-.4-.4-.3-1.4.3-2.1.6-.8.6-1.4 0-1.8-.5-.4-1.3-.1-1.6.5zm-2.5 3.4c-.6.8-1.8 1.1-2.6.8-1.2-.4-1.2-.8.3-1.8 2.2-1.6 3.8-.8 2.3 1zm-5.3 6.3c-1 1-1.4 2.3-1 2.7.5.5.1.4-.8-.3-1.3-.9-2.1-.6-4.8 2.2-3.1 3.2-3.5 6.4-.8 5 .7-.3-.1.6-1.7 2-1.7 1.4-3.4 2.2-3.8 2-.5-.3-1.5-.1-2.3.6-1 .8-1.3.8-1.1-.3.2-1.9 4.6-7.3 4.6-5.7 0 .7 1 0 2.3-1.6 1.2-1.6 2.1-3.2 1.9-3.7-.1-.5.2-.6.7-.3.5.4 1.7-.4 2.5-1.6 1-1.4 1.6-1.7 1.6-.8 0 1.1.4 1.1 1.7-.3 2.3-2.3 3-2.2 1 .1z"/><path d="M511.3 235.3c-1.6 1.9-1.6 2 0 .8 1.4-1.1 1.7-1.1 1.7 0 .1.9.4.8 1.1-.4.6-.9 1.6-1.4 2.2-1.1.7.4.8.3.4-.1-1.4-1.6-3.6-1.3-5.4.8zM499.7 244.6c-3.1 3.1-5.3 6.2-5 6.9.2.7-.1 1.6-.6 2-.6.3-.9 1.1-.5 1.6.3.5 1 .7 1.5.3.5-.3.6-1 .3-1.6-.5-.7-.1-.9.9-.5.9.3 1.9.2 2.2-.4.4-.5 1.2-.6 1.8-.2.7.4.6 0-.2-1-.9-1.1-1-1.7-.2-1.8.6-.1 1.5-.2 2.1-.3.5 0 2.4-1.4 4.1-3l3.1-3-2-1.7c-1.2-.9-1.8-1.9-1.5-2.3.4-.3.4-.6.1-.6-.4 0-3.1 2.5-6.1 5.6zm6.3-1.9c0-.5.5-.5 1.1-.1.7.4.1 1.6-1.7 3.4-2.6 2.4-3 2.5-4.2 1.1-1.1-1.5-1.2-1.5-.6 0 .3 1-.1 1.9-1.1 2.3-.9.3-1.4 1-1 1.5.9 1.5-1.2 2.2-2.3.8-.8-1 0-2.5 3.5-6 3.4-3.5 4.8-4.4 5.4-3.5.5.7.9.9.9.5z"/><path d="M502 244.5c-1.8 2.1.5 2.7 3 .7 2.1-1.7 2.1-1.8.2-1.9-1.2-.1-2.6.4-3.2 1.2zm3-.1c0 .2-.7.7-1.6 1-.8.3-1.2.2-.9-.4.6-1 2.5-1.4 2.5-.6zM497.6 248.9c-1.4 1.5-1.5 2.1-.4 2.7.7.4 1 .3.5-.1-.4-.5 0-1.7 1-2.7.9-1 1.4-1.8 1.1-1.8-.3 0-1.3.9-2.2 1.9zM488 256c-.6 1.1-.8 2-.6 2 .3 0 1-.9 1.6-2 .6-1.1.8-2 .6-2-.3 0-1 .9-1.6 2zM480.5 263.3c-1.6 1.7-2.4 2.8-1.7 2.3.8-.5 1.9.1 3 1.4l1.8 2.2 2.7-2.7 2.7-2.7-2.4-1.9c-1.3-1.1-2.6-1.9-2.8-1.9-.1.1-1.6 1.5-3.3 3.3zm5.5-.8c1 1.3 1 1.9-.5 3.5-1.7 1.9-4.1 1.8-3-.1.4-.5.1-.9-.4-.9-.7 0-.7-.7.1-2 1.5-2.4 2.2-2.5 3.8-.5z"/><path d="M483.9 262c-.1.3-.3 1.5-.4 2.8-.2 2.2-.1 2.2 1.3.8 1.3-1.2 1.4-1.9.4-2.8-.7-.7-1.3-1-1.3-.8zM478 269.5c-.7.9-1.8 1.4-2.4 1.2-1.2-.4-8 5.2-11 9.3-1.1 1.4-1.6 2.2-1.2 1.8.5-.4 1.6.2 2.5 1.4l1.7 2 3-3.1c1.6-1.7 3-3.6 3-4.1.1-.6.2-1.5.3-2.1.1-.8.5-.8 1.4 0 1.1.8 1.9.5 3.4-1.2 2.9-3.2 3.7-4.8 2.1-4.5-.7.2-1.2-.3-1-1 .3-1.6-.3-1.5-1.8.3zm1.4 2.8c-1.9 3.2-2.7 3.7-4 2.6-1.1-.9-1.5-.7-2 .5-.4 1-1.3 1.5-2.3 1.2-1.5-.6-1.5-.5 0 .6 1.4 1.2 1.3 1.6-1.3 4.3-2.5 2.7-3 2.9-2.7.9 0-.4-.4-1-1.1-1.4-.7-.4.6-2.4 3.7-5.3 3.3-3.2 5.1-4.3 5.9-3.6.8.6 1.4.5 1.8-.6.3-.9 1-1.3 1.6-1 .6.4.7 1.2.4 1.8z"/><path d="M472.4 274.3c-1.9 2.2-1.9 2.2.2.5 1.4-1.3 2.3-1.5 3.1-.7.8.8 1.3.7 1.8-.3.5-.7.5-1 0-.6-.4.4-1.4.3-2-.2-.8-.7-1.8-.3-3.1 1.3zM468.2 278.3c-1.1 1.5-1.2 4.8 0 4.1.4-.3 1.2-1.4 1.8-2.4 1.2-2.2-.3-3.6-1.8-1.7zm1.1 1.2c-.3.9-.8 1.4-1 1.1-.3-.3-.2-.9.2-1.5.9-1.6 1.5-1.3.8.4zM457.6 286.5c-1.7 1.6-2.8 3-2.5 3.1.7.1-2.5 3.1-3.3 3-.3-.1-1.8 1-3.2 2.3-1.8 1.7-2.3 2.8-1.6 3.6 1.1 1.3-2.5 5.4-3.7 4.2-.7-.7-7.8 5.4-10.7 9.3-1.1 1.4-1.6 2.2-1.2 1.8.5-.4 1.6.2 2.5 1.4l1.7 2 3-3.1c1.6-1.7 3-3.6 3-4.1.1-.6.2-1.5.3-2.1.1-.8.5-.8 1.5 0s1.6.8 2.5-.3c.8-1 .9-1.6.1-2.1-.5-.3-1-1.1-1-1.7 0-.6.3-.8.7-.5.3.4 1.5-.1 2.6-1 1-1 2.1-1.7 2.3-1.6.2.2 1 .3 1.7.3.6 0 .4-.5-.6-1.1-1.8-1-1.7-1.3.9-4s5.2-4 3.9-2c-.3.5-.1 1.2.4 1.6.6.3 2-.8 3.2-2.4 1.2-1.7 2.7-2.7 3.3-2.4.6.4.5-.1-.2-1-1.5-1.7-.9-3.7 1.1-3.7.7 0 .6.4-.3 1-.8.5-1.1 1.2-.7 1.7.5.4 1.2.1 1.7-.7 1-1.6-1.5-4.4-3.1-3.5-.4.3-.9.2-1.1-.2-.1-.5-1.6.5-3.2 2.2zm4.3.1c-.6.7-.8 1.7-.5 2.2.2.4-.6 2.1-2 3.8-1.4 1.6-2.3 2.4-2 1.7 1.4-2.7-1.8-2.3-5 .8-2.8 2.7-3.1 3.5-2.2 4.8.7.9.8 1.3.3.8-.4-.4-1.8.1-2.9 1-2.1 1.8-2.1 1.8-.4-.3 1.2-1.4 1.4-2.4.8-3-1-1 1.5-4.2 3.3-4.3 1.3 0 6.1-4.1 4.8-4.1-.7 0 0-1.1 1.5-2.3 2.9-2.6 6.2-3.4 4.3-1.1zm-16.5 20.6c-.3.5-1.2.4-2-.3-1.1-.9-1.5-.8-2 .5-.4 1-1.3 1.5-2.3 1.2-1.5-.6-1.5-.5 0 .6 1.4 1.2 1.3 1.6-1.3 4.3-2.5 2.7-3 2.9-2.7.9 0-.4-.4-1-1.1-1.4-.7-.4.6-2.4 3.7-5.3 4.4-4.3 4.9-4.5 6.5-3 1 .8 1.5 2 1.2 2.5z"/><path d="M458.9 287.6c-1.7 2.1-2 4.2-.7 5.1.7.3.8.1.4-.5-.3-.6.2-1.5 1.1-2.1 1.2-.7 1.3-1 .4-1.1-1.1 0-1.1-.3-.1-1.5.7-.8 1-1.5.7-1.5-.2 0-1.1.7-1.8 1.6zM448.9 296.7c-1.3 1.6-1.2 1.7.4.4.9-.7 1.7-1.5 1.7-1.7 0-.8-.8-.3-2.1 1.3zM440.4 306.2c-1.9 2.3-1.9 2.3.2.6 1.6-1.4 2.3-1.5 3.4-.5 1.2 1 1.2.9.1-.6-1.7-2.1-1.4-2.1-3.7.5zM436.2 310.3c-1.1 1.5-1.2 4.8 0 4.1.4-.3 1.2-1.4 1.8-2.4 1.2-2.2-.3-3.6-1.8-1.7zm1.1 1.2c-.3.9-.8 1.4-1 1.1-.3-.3-.2-.9.2-1.5.9-1.6 1.5-1.3.8.4zM425.6 318.5c-1.7 1.6-2.8 3-2.5 3.1.8.1-3.5 3.9-4.5 3.9-.6.1-1 .6-.9 1.3.2.6-.6 1.6-1.7 2.2-1.1.6-1.8 1.5-1.5 2.1.4.5-.3 2-1.3 3.4-1.8 2.2-2.1 2.3-2.7.8-.6-1.6-.8-1.5-2.5.7-1 1.3-1.6 2.8-1.3 3.3.2.4 0 1.4-.7 2.2-.7.8-.7 1.5-.1 1.9.5.4 1.2.2 1.6-.4.4-.6 1.1-.7 1.7-.4.7.4.8.2.4-.5-.4-.6.4-2.5 1.8-4.2 1.4-1.7 2.6-2.7 2.6-2.3 0 .4.9-.1 2.1-1.2 1.2-1 2.3-1.8 2.5-1.7.2.2 1 .3 1.7.3.6 0 .4-.5-.6-1.1-1.8-1-1.7-1.3.9-4s5.2-4 3.9-2c-.3.5-.1 1.2.4 1.6.6.3 2-.8 3.2-2.4 1.2-1.7 2.7-2.7 3.3-2.4.6.4.5-.1-.2-1-1.5-1.7-.9-3.7 1.1-3.7.7 0 .6.4-.3 1-.8.5-1.1 1.2-.7 1.7.5.4 1.2.1 1.7-.7 1-1.6-1.5-4.4-3.1-3.5-.4.3-.9.2-1.1-.2-.1-.5-1.6.5-3.2 2.2zm4.3.1c-.6.7-.8 1.7-.5 2.2.2.4-.6 2.1-2 3.8-1.4 1.6-2.3 2.4-2 1.7 1.4-2.7-1.8-2.3-5 .8-2.8 2.7-3.1 3.5-2.2 4.8.7.9.8 1.3.3.8-.4-.4-1.8.1-2.9 1-2.1 1.8-2.1 1.8-.2-.5 1.4-1.6 1.5-2.2.5-2.2-.8 0-.4-.7.9-1.6 1.2-.8 2-2 1.6-2.5-.3-.5-.2-.8.3-.7.5.2 2.1-.7 3.7-2 1.6-1.2 2.3-2.2 1.7-2.2-.7 0 0-1.1 1.5-2.3 2.9-2.6 6.2-3.4 4.3-1.1zm-20.1 20.1c-1.6 1.9-2.9.5-1.6-1.7.9-1.3 1.4-1.6 2-.7.4.6.2 1.7-.4 2.4z"/><path d="M426.9 319.6c-1.7 2.1-2 4.2-.7 5.1.7.3.8.1.4-.5-.3-.6.2-1.5 1.1-2.1 1.2-.7 1.3-1 .4-1.1-1.1 0-1.1-.3-.1-1.5.7-.8 1-1.5.7-1.5-.2 0-1.1.7-1.8 1.6zM399.6 344.4c-1 1.6-1.2 2.7-.6 3.1.6.4.9.3.8-.2-.1-.4.3-1.8 1-3.1 1.7-3 .8-2.8-1.2.2zM388.5 355.3c-3.8 3.9-6.4 6.8-5.7 6.3.8-.5 1.9.1 3 1.4l1.8 2.2 3-3.1c1.6-1.7 3-3.6 3-4.1.1-.6.2-1.5.3-2.1.1-.8.6-.8 1.6.1 1.6 1.3 1.7 1.2 1.9-1.9 0-1.1.4-2.3.8-2.7.8-.7-1-3.5-2.1-3.3-.3.1-3.7 3.3-7.6 7.2zm9-5.4c.3.5.1 1.2-.4 1.6-.5.3-.8 1.5-.6 2.6.3 1.7.2 1.9-1 .9-1.2-1-1.6-.9-2.1.4-.4 1-1.3 1.5-2.3 1.2-1.5-.6-1.5-.5 0 .6 1.4 1.2 1.3 1.6-1.3 4.3-2.5 2.7-3 2.9-2.7.9 0-.4-.4-1-1-1.3-.7-.5.9-2.9 4.1-6.3 5.6-5.9 6.3-6.4 7.3-4.9z"/><path d="M393.4 353.2c-1.6 1.8-2 2.5-.8 1.5 1.1-.9 2.4-1.5 2.7-1.2.4.3.5.2.2-.2-.3-.3 0-1.2.6-2 2.3-2.7.2-1.2-2.7 1.9zM388.2 358.3c-1.1 1.5-1.2 4.8 0 4.1.4-.3 1.2-1.4 1.8-2.4 1.2-2.2-.3-3.6-1.8-1.7zm1.1 1.2c-.3.9-.8 1.4-1 1.1-.3-.3-.2-.9.2-1.5.9-1.6 1.5-1.3.8.4zM382 365.5c-.7.9-1.8 1.4-2.4 1.2-1.2-.4-8 5.2-11 9.3-1.1 1.4-1.6 2.2-1.2 1.8.5-.4 1.6.2 2.5 1.4l1.7 2 3-3.1c1.6-1.7 3-3.6 3-4.1.1-.6.2-1.5.3-2.1.1-.8.5-.8 1.4 0 1.1.8 1.9.5 3.4-1.2 2.9-3.2 3.7-4.8 2.1-4.5-.7.2-1.2-.3-1-1 .3-1.6-.3-1.5-1.8.3zm1.4 2.8c-1.9 3.2-2.7 3.7-4 2.6-1.1-.9-1.5-.7-2 .5-.4 1-1.3 1.5-2.3 1.2-1.5-.6-1.5-.5 0 .6 1.4 1.2 1.3 1.6-1.3 4.3-2.5 2.7-3 2.9-2.7.9 0-.4-.4-1-1.1-1.4-.7-.4.6-2.4 3.7-5.3 3.3-3.2 5.1-4.3 5.9-3.6.8.6 1.4.5 1.8-.6.3-.9 1-1.3 1.6-1 .6.4.7 1.2.4 1.8z"/><path d="M376.4 370.3c-1.9 2.2-1.9 2.2.2.5 1.4-1.3 2.3-1.5 3.1-.7.8.8 1.3.7 1.8-.3.5-.7.5-1 0-.6-.4.4-1.4.3-2-.2-.8-.7-1.8-.3-3.1 1.3zM372.2 374.3c-1.1 1.5-1.2 4.8 0 4.1.4-.3 1.2-1.4 1.8-2.4 1.2-2.2-.3-3.6-1.8-1.7zm1.1 1.2c-.3.9-.8 1.4-1 1.1-.3-.3-.2-.9.2-1.5.9-1.6 1.5-1.3.8.4zM361.6 382.5c-1.7 1.6-2.8 3-2.5 3.1.8.1-3.5 3.9-4.5 3.9-.6.1-1 .6-.9 1.3.2.6-.6 1.6-1.7 2.2-1.1.6-1.8 1.5-1.5 2.1.4.5-.3 2-1.3 3.4-1.8 2.2-2.1 2.3-2.7.8-.6-1.6-.8-1.5-2.5.7-1 1.3-1.6 2.8-1.3 3.3.2.4 0 1.4-.7 2.2-.7.8-.7 1.5-.1 1.9.5.4 1.2.2 1.6-.4.4-.6 1.1-.7 1.7-.4.7.4.8.2.4-.5-.4-.6.4-2.5 1.8-4.2 1.4-1.7 2.6-2.7 2.6-2.3 0 .4.9-.1 2.1-1.2 1.2-1 2.3-1.8 2.5-1.7.2.2 1 .3 1.7.3.6 0 .4-.5-.6-1.1-1.8-1-1.7-1.3.9-4s5.2-4 3.9-2c-.3.5-.1 1.2.4 1.6.6.3 2-.8 3.2-2.4 1.2-1.7 2.7-2.7 3.3-2.4.6.4.5-.1-.2-1-1.5-1.7-.9-3.7 1.1-3.7.7 0 .6.4-.3 1-.8.5-1.1 1.2-.7 1.7.5.4 1.2.1 1.7-.7 1-1.6-1.5-4.4-3.1-3.5-.4.3-.9.2-1.1-.2-.1-.5-1.6.5-3.2 2.2zm4.3.1c-.6.7-.8 1.7-.5 2.2.2.4-.6 2.1-2 3.8-1.4 1.6-2.3 2.4-2 1.7 1.4-2.7-1.8-2.3-5 .8-2.8 2.7-3.1 3.5-2.2 4.8.7.9.8 1.3.3.8-.4-.4-1.8.1-2.9 1-2.1 1.8-2.1 1.8-.2-.5 1.4-1.6 1.5-2.2.5-2.2-.8 0-.4-.7.9-1.6 1.2-.8 2-2 1.6-2.5-.3-.5-.2-.8.3-.7.5.2 2.1-.7 3.7-2 1.6-1.2 2.3-2.2 1.7-2.2-.7 0 0-1.1 1.5-2.3 2.9-2.6 6.2-3.4 4.3-1.1zm-20.1 20.1c-1.6 1.9-2.9.5-1.6-1.7.9-1.3 1.4-1.6 2-.7.4.6.2 1.7-.4 2.4z"/><path d="M362.9 383.6c-1.7 2.1-2 4.2-.7 5.1.7.3.8.1.4-.5-.3-.6.2-1.5 1.1-2.1 1.2-.7 1.3-1 .4-1.1-1.1 0-1.1-.3-.1-1.5.7-.8 1-1.5.7-1.5-.2 0-1.1.7-1.8 1.6zM335.6 408.4c-1 1.6-1.2 2.7-.6 3.1.6.4.9.3.8-.2-.1-.4.3-1.8 1-3.1 1.7-3 .8-2.8-1.2.2zM325.5 418.6c-5.7 6.2-7.2 7.9-5.9 6.9.4-.2 1.4.5 2.3 1.7l1.7 2 3-3.1c1.6-1.7 3-3.6 3-4.1.1-.6.2-1.5.3-2.1.1-.8.6-.8 1.6.1 1.6 1.3 1.7 1.2 1.9-1.9 0-1.1.4-2.3.8-2.7.8-.7-.9-3.5-2.1-3.3-.3 0-3.3 3-6.6 6.5zm8-4.7c.3.5.1 1.2-.4 1.6-.5.3-.8 1.5-.6 2.6.3 1.7.2 1.9-1 .9-1.2-1-1.6-.9-2.1.4-.4 1-1.3 1.5-2.3 1.2-1.5-.6-1.5-.5 0 .6 1.4 1.2 1.3 1.6-1.3 4.3-2.5 2.7-3 2.9-2.7.9 0-.4-.4-1-1-1.3-.7-.5.9-2.9 4.1-6.3 5.6-5.9 6.3-6.4 7.3-4.9z"/><path d="M329.4 417.2c-1.6 1.8-2 2.5-.8 1.5 1.1-.9 2.4-1.5 2.7-1.2.4.3.5.2.2-.2-.3-.3 0-1.2.6-2 2.3-2.7.2-1.2-2.7 1.9zM324.2 422.3c-1.1 1.5-1.2 4.8 0 4.1.4-.3 1.2-1.4 1.8-2.4 1.2-2.2-.3-3.6-1.8-1.7zm1.1 1.2c-.3.9-.8 1.4-1 1.1-.3-.3-.2-.9.2-1.5.9-1.6 1.5-1.3.8.4zM313.6 430.5c-1.7 1.6-3 3.2-3 3.5-.1 1.1-3 3.9-3.6 3.5-.4-.3-1.5.4-2.5 1.5s-1.5 2-1 2c.4 0 .2.7-.5 1.5s-1.7 1.2-2.4.8c-.6-.3-.8-.3-.4.1s-1.4 2.7-4 5c-6.9 6.1-10.9 10-9.4 9.2.7-.5 2 .1 3 1.4l1.8 2.2 3-3.1c1.6-1.7 3-3.6 3-4.1.1-.6.2-1.5.3-2.1.1-.8.5-.9 1.4 0 1.8 1.4 2.6.5 2.1-2.4-.3-1.9 0-2.3 1.4-2 .9.1 2.7-.5 4-1.5 1.9-1.6 2-1.9.5-2.4-1.4-.6-1.2-1.1 1.2-3.6 2.7-2.8 5.3-4.1 4-2.1-.3.5-.1 1.2.4 1.6.6.3 2-.8 3.2-2.4 1.2-1.7 2.7-2.7 3.3-2.4.6.4.5-.1-.2-1-1.5-1.7-.9-3.7 1.1-3.7.7 0 .6.4-.3 1-.8.5-1.1 1.2-.7 1.7.5.4 1.2.1 1.7-.7 1-1.6-1.5-4.4-3.1-3.5-.4.3-.9.2-1.1-.2-.1-.5-1.6.5-3.2 2.2zm4.3.1c-.6.7-.8 1.7-.5 2.2.2.4-.6 2.1-2 3.8-1.4 1.6-2.3 2.4-2 1.7 1.4-2.7-1.8-2.3-5 .8-2.4 2.3-3.1 3.6-2.3 4.5 1.1 1.4-.4 2.8-3.3 3-3.7.3-3.9.4-3.1 1.6.4.7.8 1.9.9 2.6.2 1-.1 1-1.2.1-1.1-.9-1.5-.8-2 .5-.4 1-1.3 1.5-2.3 1.2-1.5-.6-1.5-.5 0 .6 1.4 1.2 1.3 1.6-1.3 4.3-2.5 2.7-3 2.9-2.7.9 0-.4-.4-1-1.1-1.4-1.1-.7 4-6.1 11.8-12.5 1.7-1.5 3-3.1 2.7-3.5-.5-.8 1.2-2.4 2.5-2.5 1.2 0 6.2-4.5 5.1-4.5-.7 0 0-1.1 1.5-2.3 2.9-2.6 6.2-3.4 4.3-1.1z"/><path d="M314.9 431.6c-1.7 2.1-2 4.2-.7 5.1.7.3.8.1.4-.5-.3-.6.2-1.5 1.1-2.1 1.2-.7 1.3-1 .4-1.1-1.1 0-1.1-.3-.1-1.5.7-.8 1-1.5.7-1.5-.2 0-1.1.7-1.8 1.6zM303.1 444.4c-1 1.1-.9 1.4.1 1.2 1.4-.2 2.3-1.5 1.5-2.2-.2-.2-1 .2-1.6 1zM296.4 450.2c-1.9 2.3-1.9 2.3.2.5 1.1-.9 2.4-1.4 2.9-1 .4.5.5.2.1-.5-.9-1.6-1-1.6-3.2 1zM292.2 454.3c-1.1 1.5-1.2 4.8 0 4.1.4-.3 1.2-1.4 1.8-2.4 1.2-2.2-.3-3.6-1.8-1.7zm1.1 1.2c-.3.9-.8 1.4-1 1.1-.3-.3-.2-.9.2-1.5.9-1.6 1.5-1.3.8.4zM286 461.5c-.7.9-1.8 1.4-2.4 1.2-1.2-.4-8 5.2-11 9.3-1.1 1.4-1.6 2.2-1.2 1.8.5-.4 1.6.2 2.5 1.4l1.7 2 3-3.1c1.6-1.7 3-3.6 3-4.1.1-.6.2-1.5.3-2.1.1-.8.5-.8 1.4 0 1.1.8 1.9.5 3.4-1.2 2.9-3.2 3.7-4.8 2.1-4.5-.7.2-1.2-.3-1-1 .3-1.6-.3-1.5-1.8.3zm1.4 2.8c-1.9 3.2-2.7 3.7-4 2.6-1.1-.9-1.5-.7-2 .5-.4 1-1.3 1.5-2.3 1.2-1.5-.6-1.5-.5 0 .6 1.4 1.2 1.3 1.6-1.3 4.3-2.5 2.7-3 2.9-2.7.9 0-.4-.4-1-1.1-1.4-.7-.4.6-2.4 3.7-5.3 3.3-3.2 5.1-4.3 5.9-3.6.8.6 1.4.5 1.8-.6.3-.9 1-1.3 1.6-1 .6.4.7 1.2.4 1.8z"/><path d="M280.4 466.3c-1.9 2.2-1.9 2.2.2.5 1.4-1.3 2.3-1.5 3.1-.7.8.8 1.3.7 1.8-.3.5-.7.5-1 0-.6-.4.4-1.4.3-2-.2-.8-.7-1.8-.3-3.1 1.3zM276.2 470.3c-1.1 1.5-1.2 4.8 0 4.1.4-.3 1.2-1.4 1.8-2.4 1.2-2.2-.3-3.6-1.8-1.7zm1.1 1.2c-.3.9-.8 1.4-1 1.1-.3-.3-.2-.9.2-1.5.9-1.6 1.5-1.3.8.4zM265.6 478.5c-1.7 1.6-2.8 3-2.5 3.1.8.1-3.5 3.9-4.5 3.9-.6.1-1 .6-.9 1.3.2.6-.6 1.6-1.8 2.2-1.1.7-3.9 3-6.2 5.3-2.9 3-3.4 3.7-1.4 2.4 1.5-.9 2.7-1.4 2.7-1 0 .3 1.1-.4 2.5-1.7 1.8-1.7 2.8-2 3.8-1.2.7.6 1.9.7 2.6.3 1-.6.9-1-.5-1.5-1.5-.6-1.4-1 1.1-3.6 2.7-2.8 5.3-4.1 4-2.1-.3.5-.1 1.2.4 1.6.6.3 2-.8 3.2-2.4 1.2-1.7 2.7-2.7 3.3-2.4.6.4.5-.1-.2-1-1.5-1.7-.9-3.7 1.1-3.7.7 0 .6.4-.3 1-.8.5-1.1 1.2-.7 1.7.5.4 1.2.1 1.7-.7 1-1.6-1.5-4.4-3.1-3.5-.4.3-.9.2-1.1-.2-.1-.5-1.6.5-3.2 2.2zm4.3.1c-.6.7-.8 1.7-.5 2.2.2.4-.6 2.1-2 3.8-1.4 1.6-2.3 2.4-2 1.7 1.4-2.7-1.8-2.3-5 .8-2.8 2.7-3.2 3.5-2.1 4.8 1.1 1.4 1 1.4-.6.2-1.5-1.2-2.1-1.1-4.4 1-2.2 2-2.4 2.1-1.3.4.7-1.2 2.6-2.9 4.2-3.8 1.6-.9 2.6-2.1 2.3-2.7-.4-.6-.3-.9.2-.8.5.2 2.1-.7 3.7-2 1.6-1.2 2.3-2.2 1.7-2.2-.7 0 0-1.1 1.5-2.3 2.9-2.6 6.2-3.4 4.3-1.1z"/><path d="M266.9 479.6c-1.7 2.1-2 4.2-.7 5.1.7.3.8.1.4-.5-.3-.6.2-1.5 1.1-2.1 1.2-.7 1.3-1 .4-1.1-1.1 0-1.1-.3-.1-1.5.7-.8 1-1.5.7-1.5-.2 0-1.1.7-1.8 1.6zM245.5 502.1c-.4.5-1.2.8-1.9.6-.7-.3-2.3.3-3.7 1.3-2.1 1.7-2.2 1.9-.6 2.5 1.5.6 1.4.9-.8 2.7-1.4 1-2.8 1.7-3.3 1.4-.4-.2-3.7 2.3-7.2 5.6-3.6 3.4-5.9 5.8-5.2 5.4.7-.5 2 .1 3 1.4l1.8 2.2 3-3.1c1.6-1.7 3-3.6 3-4.1.1-.6.2-1.5.3-2.1.1-.8.5-.9 1.4 0 1.8 1.4 2.6.5 2.1-2.5-.2-1.3 0-2.3.5-2.2.5.2.9-.1 1-.5.1-1.7 6.1-5.8 7.3-5.1.7.4 1 .4.6-.1-.4-.4-.3-1.4.3-2.1.6-.8.6-1.4 0-1.8-.5-.4-1.3-.1-1.6.5zm-2.5 3.4c-.6.8-1.8 1.1-2.6.8-1.2-.4-1.2-.8.3-1.8 2.2-1.6 3.8-.8 2.3 1zm-6.4 9c.2 1.3-.1 1.4-1.2.4-1.1-.9-1.5-.8-2 .5-.4 1-1.3 1.5-2.3 1.2-1.5-.6-1.5-.5 0 .6 1.4 1.2 1.3 1.6-1.3 4.3-2.5 2.7-3 2.9-2.7.9 0-.4-.4-1-1.1-1.4-.7-.4.6-2.4 3.7-5.3 4.7-4.6 6.4-4.8 6.9-1.2z"/><path d="M232.4 514.2c-1.9 2.3-1.9 2.3.2.5 1.1-.9 2.4-1.4 2.9-1 .4.5.5.2.1-.5-.9-1.6-1-1.6-3.2 1zM228.2 518.3c-1.1 1.5-1.2 4.8 0 4.1.4-.3 1.2-1.4 1.8-2.4 1.2-2.2-.3-3.6-1.8-1.7zm1.1 1.2c-.3.9-.8 1.4-1 1.1-.3-.3-.2-.9.2-1.5.9-1.6 1.5-1.3.8.4zM222 525.5c-.7.9-1.8 1.4-2.4 1.2-1.2-.4-8 5.2-11 9.3-1.1 1.4-1.6 2.2-1.2 1.8.5-.4 1.6.2 2.5 1.4l1.7 2 3-3.1c1.6-1.7 3-3.6 3-4.1.1-.6.2-1.5.3-2.1.1-.8.5-.8 1.4 0 1.1.8 1.9.5 3.4-1.2 2.9-3.2 3.7-4.8 2.1-4.5-.7.2-1.2-.3-1-1 .3-1.6-.3-1.5-1.8.3zm1.4 2.8c-1.9 3.2-2.7 3.7-4 2.6-1.1-.9-1.5-.7-2 .5-.4 1-1.3 1.5-2.3 1.2-1.5-.6-1.5-.5 0 .6 1.4 1.2 1.3 1.6-1.3 4.3-2.5 2.7-3 2.9-2.7.9 0-.4-.4-1-1.1-1.4-.7-.4.6-2.4 3.7-5.3 3.3-3.2 5.1-4.3 5.9-3.6.8.6 1.4.5 1.8-.6.3-.9 1-1.3 1.6-1 .6.4.7 1.2.4 1.8z"/><path d="M216.4 530.3c-1.9 2.2-1.9 2.2.2.5 1.4-1.3 2.3-1.5 3.1-.7.8.8 1.3.7 1.8-.3.5-.7.5-1 0-.6-.4.4-1.4.3-2-.2-.8-.7-1.8-.3-3.1 1.3zM212.2 534.3c-1.1 1.5-1.2 4.8 0 4.1.4-.3 1.2-1.4 1.8-2.4 1.2-2.2-.3-3.6-1.8-1.7zm1.1 1.2c-.3.9-.8 1.4-1 1.1-.3-.3-.2-.9.2-1.5.9-1.6 1.5-1.3.8.4zM203.5 540.6c-.4 1-.7 2.4-.6 3.1.1.6-1.2 2.1-2.9 3.3-1.6 1.2-3 1.6-3 1 0-.6-.5-.8-1.1-.4-.8.5-.8.9.1 1.4.9.6.9.9-.1 1.3s-1 .6-.1.6c.6.1 1.2.6 1.2 1.2 0 .5-.4.8-.9.5-.8-.5-.8.5-.2 3.2.3 1.1 5.6-4.3 5.6-5.6 0-.9.6-1.6 1.2-1.5.7.2 2.7-1.2 4.4-2.9 2.8-3 2.9-3.3 1.3-4.5-.9-.7-2-1-2.5-.8-.4.3-.9 0-1.1-.7-.3-.7-.8-.4-1.3.8zm4.8 1.3c.9.1-3.9 5.6-5.1 5.7-.4 0-1.5.4-2.5.9-1.4.6-1.5 1-.5 2.4.7.9.9 1.3.4.9s-1.6.1-2.5 1c-.9 1-1.2 1.2-.8.5.5-.6.6-1.6.3-2.1-.3-.6 1-2.2 3-3.7 1.9-1.5 3.3-3.3 3-4-.6-1.7.1-2.4 2.2-2 .9.2 2.1.4 2.5.4z"/><path d="M204.6 543.2c.3.5 0 1.6-.8 2.5-.9 1.2-.9 1.5-.1.9 2.2-1.2 3.4-4.3 1.8-4.3-.8 0-1.2.4-.9.9zM195.4 566.1c.1 5.8.3 6.9 1.6 6.4.9-.3.7.1-.4 1-1.1.8-1.4 1.5-.8 1.5.7 0 1.2.5 1.2 1.1 0 .5-.4.8-.8.5-.4-.2-.8.6-.8 2 0 2.1.2 2.2 1.5 1 1.9-2 2.3-8.3.5-9-.7-.3-1.1-1.2-.8-2.1.3-.8 1.1-1.2 1.8-.8.6.4.4-.1-.4-1.1s-1.5-2.9-1.6-4.2c-.3-5.5-1-2.8-1 3.7zM195.3 589.5c0 .8.4 1.5.9 1.5.4 0 .8-.4.8-.9 0-.6-.4-1.2-.8-1.5-.5-.3-.9.1-.9.9zM194.6 607.9c-.4.5-.2 1.2.3 1.6.6.3.8 1.2.4 2.1-.4 1.2-.8 1.2-2.1.2-.9-.8-1.3-.8-.9-.2.9 1.6-1.9 3.8-3.5 2.8-.8-.5-.7 0 .3 1.6.9 1.3 2.2 2.6 3 2.8 1.1.3 1.2.2.1-.6-1.1-.7-1.1-1 .2-1.5.9-.4 1.3-1.3 1-2.2-.4-.9-.3-1.5.2-1.4 1.9.3 3.7-.1 3.1-.8-.4-.3-.2-1.2.3-1.8.7-.9.6-1.6-.4-2.4-.9-.8-1.6-.8-2-.2zm-1.6 7.5c0 .2-.7.7-1.6 1-.8.3-1.2.2-.9-.4.6-1 2.5-1.4 2.5-.6zM135.9 557.5c-.7.1-.4 3.5.3 3.5.6 0 .7-.8.3-1.8-.5-1.4-.4-1.5.7-.4s1 1.6-.6 2.8c-1.1.8-1.4 1.4-.8 1.4.7 0 1.2.5 1.2 1.1 0 .5-.4.8-.8.5-1-.6-.9 8.4.1 10 .3.6.3 1.4-.1 1.8-.3.4-.7 2.4-.8 4.5-.1 3.5.1 3.8 2.5 3.5 3.7-.3 3.6-.3 2.3-1.6-.7-.7-1.2-1.9-1.2-2.8 0-1 .6-.8 2 1l2.1 2.5-1.2-2.8c-1-2.1-1.7-2.6-3.3-2.1-1.8.6-1.9.5-.9-.8.7-.8 1-1.8.6-2.1-.3-.4-.1-.7.5-.7.7 0 1.2.5 1.2 1.2 0 .6.3.8.6.5.4-.4.2-1.3-.4-2-.7-.8-.9-1.7-.5-2.1.4-.4.1-.4-.8-.1-1 .4-1.5-.1-1.6-1.5-.2-1.8 0-1.9 2.1-.5 2.2 1.5 2.3 1.5 2-1.1-.1-1.5-1-3.1-1.8-3.6-.9-.5-1.6-1.4-1.6-2 0-.9.3-.9 1.1-.1.6.6 1.8.9 2.5.6 1-.4 1.2 0 .7 1.3-.7 1.8-.6 1.8 1.1.1 1-.9 2.2-1.5 2.7-1.2.5.4.9.1.9-.6s.8-.5 2 .6c1.8 1.7 2 1.7 1.4.2-.3-.9-1.1-1.8-1.8-1.8-.6-.1-1.5-.2-2.1-.4-.5-.1-1.5-.3-2.1-.3-1.2-.2-1.5-3.2-.2-3.2.4 0 .8.4.8 1 0 .5.5 1 1 1 .6 0 .9-.5.8-1.1-.2-.6.3-1.4 1.1-1.7.9-.3 1.1 0 .7.7-.4.7.6 2.4 2.4 4.1 1.8 1.7 3 2.4 2.7 1.6-.4-.9.2-1.7 1.4-2.1 1-.4 1.9-.9 2-1.3 0-.4.2-1.4.4-2.2.2-1.3-1.5-1.5-10.6-1.5h-11zm6.8 2.2c0 1.7-1.4 1.7-2 0-.4-.9-.6-.9-.6 0-.1.7 1.1 1.9 2.7 2.7l2.7 1.5-3-.4c-1.6-.2-3.2-.4-3.5-.5-.3-.2-.9-.2-1.4-.1-.5.1-.4-.5.3-1.3s1-1.9.8-2.4c-.3-.4.5-.8 1.7-.8s2.3.6 2.3 1.3zm13.8-.8c.6.1-.1 1-1.4 2.1-2.5 2.2-4.1 1.8-4.1-.8 0-1.5-.2-1.5-1-.2-.5.8-1 1-1 .4 0-2 1.3-2.3 7.5-1.5zm-16.1 10.3c-.3.5-1.1.5-1.8-.1s-1.5-.8-1.9-.5c-.3.3-.4-.2-.2-1.3.2-1 .4-2 .4-2.2.1-.2 1 .4 2.1 1.4 1.1 1 1.7 2.2 1.4 2.7zm-3.1 12.5c-.4 1-.2 1.4.5.9.6-.3 1.3-.2 1.6.3.4.5-.2.8-1.1.7-1-.2-1.8-1.2-1.9-2.4-.1-1.2.2-1.9.7-1.6.4.2.5 1.2.2 2.1z"/><path d="M137 566.4c0 .2.8 1 1.8 1.7 1.5 1.3 1.6 1.2.3-.4s-2.1-2.1-2.1-1.3zM159.4 558.5c.3.8.1 1.7-.4 2-1.7 1.1-1.1 2.3 1.5 2.7 1.3.3 2.2.1 1.9-.3-.3-.5-1.2-.9-2-.9s-1.3-.4-.9-1c.3-.5 1.2-.7 2-.4.9.4 1.3-.1 1.2-1.3 0-1.1-.9-2-2-2-1.2-.1-1.7.3-1.3 1.2zM155.5 564c-.3.5-.1 1 .4 1 .6 0 1.1-.5 1.1-1 0-.6-.2-1-.4-1-.3 0-.8.4-1.1 1zM141.6 574.2c.3.4 1.1.5 1.9.1 2.1-.7 1.9-1.2-.4-1-1.1 0-1.8.5-1.5.9zM143.6 581.3c.3 1 .9 1.5 1.2 1.2.3-.3 0-1.1-.7-1.8-1-.9-1.1-.8-.5.6zM618 116c-.9.6-1 1-.3 1 .6 0 1.5-.5 1.8-1 .8-1.2.4-1.2-1.5 0zM618.4 118.6c-1.8 1.4-1.8 1.5.4.4 1.2-.6 2.2-1.3 2.2-1.5 0-.8-.5-.6-2.6 1.1zM620 120c-.9.6-1 1-.3 1 .6 0 1.5-.5 1.8-1 .8-1.2.4-1.2-1.5 0zM623.1 123.2c.5 1 1.1 1.8 1.2 1.8.2 0 .3-.8.3-1.8s-.6-1.9-1.3-1.9c-.8 0-.9.6-.2 1.9zM618.5 122.8c-1.2.8-1.4 17-.3 18.8.4.6.4 1.4.1 1.8-1 1-1.2 5.6-.2 5.6.4 0 .6.8.4 1.7-.2 1-.4 1.8-.6 1.8-.1 0-.2 3-.3 6.6-.1 6.1 0 6.7 1.8 6.3 2.7-.5 2.9-1 1.7-3.3-.7-1.3-.8-2.2-.1-2.6.5-.3 1 0 1 .8s.6 2 1.3 2.6c1 .8 1.4.7 1.4-.4 0-.8-.4-1.2-.9-.9-1.3.8-.9-1.1.5-2.5 1-1 .9-1.1-.4-.6-1 .4-2 .1-2.4-.4-.3-.6-1-.9-1.5-.6-.5.3-.8-.4-.7-1.5.1-2 .8-2.4 3.7-2.1 1.2.2 1.2 0 .2-.7-1.5-1-1.5-2.1 0-4 .8-1 .6-1.1-.8-.6-1.6.6-1.5.3.6-2.2 1.4-1.6 1.8-2.3 1-1.7-2.6 2.4-3.4 1.3-.9-1.3 1.3-1.4 2-2.5 1.4-2.4-2.3.5-3.5-.1-3.5-1.6 0-1.3.3-1.4 1.5-.4.8.6 2 1 2.7.7.9-.4.8-.6-.3-.6-.9-.1-2.3-.8-3-1.7-1.2-1.5-1.1-1.6 1.1-1 2.4.6 2.4.6.5-.6-2.2-1.4-2.5-2.5-1.1-4.6.4-.7.5-1.6.2-1.9-.3-.3-.1-1.2.5-1.9.9-1 .7-1.5-.5-2-.9-.3-1.6-1.2-1.6-2 0-1.5-.9-1.8-2.5-.6zm3.3 4.8c-.4.6-.5 1.4-.1 1.7.3.4.1 1.3-.5 2-.7.8-.9 1.7-.5 2 .3.4 0 .7-.8.7-1.1 0-1.1.2.1 1 1.3.9 1.3 1 0 1s-1.3.1 0 1c.8.5 1 1 .4 1-1.8 0-1.2 2.9.8 3.6 1.6.5 1.7.8.6 2.1-1.5 1.8-1.8 6.5-.4 7.4.5.4-.2 1.3-1.5 2-2 1-2.2 1-1.3-.2.6-.8 1-2.1.8-2.9-.1-.8-.5-2.5-.8-3.8-.3-1.5 0-2.5 1.1-2.9 1.2-.5 1.3-.7.1-1.4-1-.5-1.3-2.9-1.2-9.1.2-10.5.1-10.1 2.2-8.1 1.1 1.1 1.5 2.2 1 2.9zm-1.6 31.8c-1.1 1.8-1.1 3.6-.1 3.6.6 0 .7.5.4 1.1-1 1.5-1.7.4-2-2.9-.1-1.8.2-2.9 1.1-2.9.7 0 1 .5.6 1.1z"/><path d="M619.4 128c0 1.7.3 3 .7 3 .8 0 .6-4.7-.3-5.5-.2-.3-.4.9-.4 2.5zM623.5 132.1c-.8 1.2 0 2.2 2 2.5.8.1 1.3-.2.9-.7-.3-.5-1-.6-1.6-.3-.7.5-.9.1-.5-.9.7-1.9.2-2.3-.8-.6zM624.6 149.8c-.3.5.1.9.9.9s1.2-.4.9-.9c-.3-.4-.7-.8-.9-.8-.2 0-.6.4-.9.8zM621.5 155.9c.3.6 1.4.9 2.5.8 2.3-.2 1.7-1-1.1-1.4-1.1-.2-1.8.1-1.4.6zM621.7 166.1c-.9.6-1.5 1.4-1.2 2 .4.5.1.9-.4.9-.6 0-1.1-.5-1.1-1 0-.6-.3-1-.8-1-.4 0-.7 4.1-.7 9.1s.1 8.6.3 8c.2-.6.9-.8 1.4-.5.6.4.8.2.4-.4-.9-1.5 1.5-2.1 3.9-1 2 .9 2 .9.1-.6-2.4-2-1.3-3.4 1.1-1.5 1.7 1.2 1.6 1.1 0-.7-1.7-1.8-1.9-1.8-3.1-.2-1.4 1.9-3.2 2.5-2.1.8.3-.6.1-1-.5-1s-.8-.5-.5-1c.4-.6 1-.8 1.5-.5.4.3 1.6-.3 2.7-1.3 1-.9 1.4-1.4.8-1-.7.4-2 .1-3.1-.8-1.8-1.5-1.8-1.5.4-.9 1.8.5 2.2.2 2.2-1.5 0-1.2.4-1.9.8-1.6.4.2.9-.5.9-1.6.2-2 .1-2-1.2-.2-.7 1.1-1.6 1.6-1.9 1.3-.3-.3.3-1.5 1.4-2.7 2.2-2.3 1.6-2.8-1.3-1.1zm.3 6.1c0 .7-.4.7-1.4-.1-1.1-.9-1.5-.9-1.9.1-.3.7-.4.3-.4-.9.1-1.7.4-2 1.9-1.2 1 .5 1.8 1.5 1.8 2.1zm-2.1 3.1c.8 1 .7 1.4-.2 1.4-.8 0-1.4-.6-1.4-1.4 0-.7.1-1.3.2-1.3.2 0 .8.6 1.4 1.3z"/><path d="M621.5 184c.3.5 1.4 1 2.3 1 1.5 0 1.5-.2.2-1-2-1.3-3.3-1.3-2.5 0zM616.6 187.8c-.3.5.1.9.9.9s1.2-.4.9-.9c-.3-.4-.7-.8-.9-.8-.2 0-.6.4-.9.8zM619 196.1c0 .4.7 1 1.6 1.3.8.3 1.3.2.9-.3-.3-.5.1-1.1.7-1.4.7-.3.3-.4-.9-.4-1.3.1-2.3.4-2.3.8zM545.9 197.7c-.1.2-.2.8-.3 1.3 0 .6-.7 1.4-1.4 1.9-1.1.7-1.1.9.2 1.4.9.4 1.5.1 1.3-.6-.1-.7.5-1.1 1.3-1 .8.2 2-.5 2.6-1.5 1-1.5.8-1.8-1.2-1.8-1.3 0-2.5.1-2.5.3zm3.1.9c0 .8-1.9 1.3-2.4.6-.3-.5.1-.9.9-.9s1.5.2 1.5.3zM592.4 197.8c.4.3 1.4.7 2.2.8.9.1 1.3 0 1-.4-.4-.3-1.4-.7-2.2-.8-.9-.1-1.3 0-1 .4zM623 198.2c0 .4.4.8.9.8.6 0 1.2-.4 1.5-.8.3-.5-.1-.9-.9-.9s-1.5.4-1.5.9zM563.1 202.9c-1 .7-.7.9 1.2.8 1.4-.1 2.3-.5 2-1-.6-.9-1.5-.9-3.2.2zM618.7 204.1c.7.7 1.5 1 1.8.7.3-.3-.2-.9-1.2-1.2-1.4-.6-1.5-.5-.6.5zM536 208.1l-2.5 2 2.5-1.2c1.4-.7 2.9-1.2 3.3-1.1.5.1.6-.2.2-.8-.8-1.3-.5-1.3-3.5 1.1zM539 218.4c0 .2.8 1 1.8 1.7 1.5 1.3 1.6 1.2.3-.4s-2.1-2.1-2.1-1.3zM524.6 233.3c.3 1 .9 1.5 1.2 1.2.3-.3 0-1.1-.7-1.8-1-.9-1.1-.8-.5.6zM527.3 234.5c0 .8.4 1.2.9.9.5-.3.6-1 .3-1.5-.9-1.3-1.2-1.1-1.2.6zM522.5 234.9c-.3.5-.1 1.2.5 1.6.6.4.7 1.1.4 1.7-.4.7-.2.8.5.4.8-.6.9-1.2.2-2-.6-.7-.8-1.6-.4-1.9.3-.4.4-.7 0-.7-.3 0-.8.4-1.2.9zM520.2 237.7c-.7.2-1.7 1.4-2.3 2.6-.9 1.9-.8 2 .3.7.8-.8 2-2.1 2.8-2.8 1.5-1.3 1.3-1.4-.8-.5zM501.4 258.1c-.3.6-.2 1.5.3 2s.9.1.9-1.1c0-2.3-.2-2.4-1.2-.9zM494.9 262.7c-1.3 1.6-1.2 1.7.4.4 1.6-1.3 2.1-2.1 1.3-2.1-.2 0-1 .8-1.7 1.7zM479.4 278.6c-1.8 1.4-1.8 1.5.4.4 1.2-.6 2.2-1.3 2.2-1.5 0-.8-.5-.6-2.6 1.1zM464.2 293.7c-.7.2-1.7 1.4-2.3 2.6-.9 1.9-.8 2 .3.7.8-.8 2-2.1 2.8-2.8 1.5-1.3 1.3-1.4-.8-.5zM458.4 299.2c-.4.7-.4 1 .1.6.4-.4 1.4-.3 2.1.3.9.7 1.4.6 2-.3.4-.7.4-1-.1-.6-.4.4-1.4.3-2.1-.3-.9-.7-1.4-.6-2 .3zM456.7 301.1c.7.7 1.5 1 1.8.7.3-.3-.2-.9-1.2-1.2-1.4-.6-1.5-.5-.6.5zM457.6 304.2c.3.5 1 .6 1.5.3 1.3-.9 1.1-1.2-.6-1.2-.8 0-1.2.4-.9.9zM432.2 325.7c-.7.2-1.7 1.4-2.3 2.6-.9 1.9-.8 2 .3.7.8-.8 2-2.1 2.8-2.8 1.5-1.3 1.3-1.4-.8-.5zM426.4 331.2c-.4.7-.4 1 .1.6.4-.4 1.4-.3 2.1.3.9.7 1.4.6 2-.3.4-.7.4-1-.1-.6-.4.4-1.4.3-2.1-.3-.9-.7-1.4-.6-2 .3zM424.7 333.1c.7.7 1.5 1 1.8.7.3-.3-.2-.9-1.2-1.2-1.4-.6-1.5-.5-.6.5zM425.6 336.2c.3.5 1 .6 1.5.3 1.3-.9 1.1-1.2-.6-1.2-.8 0-1.2.4-.9.9zM410 347.4c0 .2.8 1 1.8 1.7 1.5 1.3 1.6 1.2.3-.4s-2.1-2.1-2.1-1.3zM407.4 350.6c-1.8 1.4-1.8 1.5.4.4 1.2-.6 2.2-1.3 2.2-1.5 0-.8-.5-.6-2.6 1.1zM405.4 354.1c-.3.6-.2 1.5.3 2s.9.1.9-1.1c0-2.3-.2-2.4-1.2-.9zM398.9 358.7c-1.3 1.6-1.2 1.7.4.4 1.6-1.3 2.1-2.1 1.3-2.1-.2 0-1 .8-1.7 1.7zM383.4 374.6c-1.8 1.4-1.8 1.5.4.4 1.2-.6 2.2-1.3 2.2-1.5 0-.8-.5-.6-2.6 1.1zM368.2 389.7c-.7.2-1.7 1.4-2.3 2.6-.9 1.9-.8 2 .3.7.8-.8 2-2.1 2.8-2.8 1.5-1.3 1.3-1.4-.8-.5zM362.4 395.2c-.4.7-.4 1 .1.6.4-.4 1.4-.3 2.1.3.9.7 1.4.6 2-.3.4-.7.4-1-.1-.6-.4.4-1.4.3-2.1-.3-.9-.7-1.4-.6-2 .3zM360.7 397.1c.7.7 1.5 1 1.8.7.3-.3-.2-.9-1.2-1.2-1.4-.6-1.5-.5-.6.5zM361.6 400.2c.3.5 1 .6 1.5.3 1.3-.9 1.1-1.2-.6-1.2-.8 0-1.2.4-.9.9zM346 411.4c0 .2.8 1 1.8 1.7 1.5 1.3 1.6 1.2.3-.4s-2.1-2.1-2.1-1.3zM343.4 414.6c-1.8 1.4-1.8 1.5.4.4 1.2-.6 2.2-1.3 2.2-1.5 0-.8-.5-.6-2.6 1.1zM341.4 418.1c-.3.6-.2 1.5.3 2s.9.1.9-1.1c0-2.3-.2-2.4-1.2-.9zM334.9 422.7c-1.3 1.6-1.2 1.7.4.4.9-.7 1.7-1.5 1.7-1.7 0-.8-.8-.3-2.1 1.3zM320.2 437.7c-.7.2-1.7 1.4-2.3 2.6-.9 1.9-.8 2 .3.7.8-.8 2-2.1 2.8-2.8 1.5-1.3 1.3-1.4-.8-.5zM314.4 443.2c-.4.7-.4 1 .1.6.4-.4 1.4-.3 2.1.3.9.7 1.4.6 2-.3.4-.7.4-1-.1-.6-.4.4-1.4.3-2.1-.3-.9-.7-1.4-.6-2 .3zM312.7 445.1c.7.7 1.5 1 1.8.7.3-.3-.2-.9-1.2-1.2-1.4-.6-1.5-.5-.6.5zM309.4 450.1c-.3.6-.2 1.5.3 2s.9.1.9-1.1c0-2.3-.2-2.4-1.2-.9zM302.9 454.7c-1.3 1.6-1.2 1.7.4.4 1.6-1.3 2.1-2.1 1.3-2.1-.2 0-1 .8-1.7 1.7zM287.4 470.6c-1.8 1.4-1.8 1.5.4.4 1.2-.6 2.2-1.3 2.2-1.5 0-.8-.5-.6-2.6 1.1zM272.2 485.7c-.7.2-1.7 1.4-2.3 2.6-.9 1.9-.8 2 .3.7.8-.8 2-2.1 2.8-2.8 1.5-1.3 1.3-1.4-.8-.5zM266.4 491.2c-.4.7-.4 1 .1.6.4-.4 1.4-.3 2.1.3.9.7 1.4.6 2-.3.4-.7.4-1-.1-.6-.4.4-1.4.3-2.1-.3-.9-.7-1.4-.6-2 .3zM264.7 493.1c.7.7 1.5 1 1.8.7.3-.3-.2-.9-1.2-1.2-1.4-.6-1.5-.5-.6.5zM265.6 496.2c.3.5 1 .6 1.5.3 1.3-.9 1.1-1.2-.6-1.2-.8 0-1.2.4-.9.9zM251 506.4c0 .2.8 1 1.8 1.7 1.5 1.3 1.6 1.2.3-.4s-2.1-2.1-2.1-1.3zM245.4 514.1c-.3.6-.2 1.5.3 2s.9.1.9-1.1c0-2.3-.2-2.4-1.2-.9zM238.9 518.7c-1.3 1.6-1.2 1.7.4.4.9-.7 1.7-1.5 1.7-1.7 0-.8-.8-.3-2.1 1.3zM223.4 534.6c-1.8 1.4-1.8 1.5.4.4 1.2-.6 2.2-1.3 2.2-1.5 0-.8-.5-.6-2.6 1.1zM203.3 560.2c.1.7-.4 1.2-1.1 1-.8-.1-1.1.2-.7.8.5.8 1.1.8 2.1-.1.7-.6 1.1-1.5.8-2-.8-1.3-1.4-1.1-1.1.3zM202.9 566.2c.7.9.9 2.3.5 3-.6 1-.4 1.1.7 0 1.1-1 1-1.5-.6-3-1.7-1.5-1.8-1.5-.6 0zM202.6 574.3c.3 1 .9 1.5 1.2 1.2.3-.3 0-1.1-.7-1.8-1-.9-1.1-.8-.5.6zM202.6 580.2c.3.5 1 .6 1.5.3 1.3-.9 1.1-1.2-.6-1.2-.8 0-1.2.4-.9.9zM202.6 588.2c.3.5 1 .6 1.5.3 1.3-.9 1.1-1.2-.6-1.2-.8 0-1.2.4-.9.9zM203.5 605c-.4.6-1.1.7-1.7.4-.7-.4-.8-.2-.4.5.6.9 1.1.9 2.2 0 1.4-1.1 1.8-1.9 1-1.9-.3 0-.8.5-1.1 1zM199.4 616.6c-.1 1.3.3 2.4.9 2.4.6 0 .7-.3.4-.7-.4-.3-.2-1.2.3-1.8.7-.9.7-1.4-.2-1.8-.8-.3-1.4.5-1.4 1.9zM118.6 618.5c-1.1.8-1.5 1.5-.9 1.5s1.6-.7 2.3-1.5c1.6-1.9 1.1-1.9-1.4 0zM122.3 617.5c.4.4-.5 1.7-2 2.8-1.8 1.2-2 1.6-.8 1.2 1.1-.4 2.8-.7 3.8-.7.9 0 1.7-.3 1.7-.9 0-.5.5-.9 1-.9.6 0 .9.3.9.7-.3 2.1.3 3.3 1.7 3.3.8 0 1.3.4 1 .8-.3.5.2.9 1.1.9 1.1 0 .7-.8-1.3-2.4-3.1-2.4-2.7-3 .8-1.2 1.6.9 2.3.7 3.5-1 1.4-2.1 3.3-2 3.3 0 0 .6-.4.8-.9.4-.6-.3-1.5.3-2 1.4-1.7 3-1.3 3.4 1.1 1.1 2-1.8 2.7-2.1 4.4-1.9.4 0 1-.5 1.4-1.1.5-.8 1-.9 1.4-.2.3.6-.4 1.4-1.6 1.8-1.3.4-3.2 1.3-4.2 2-1.8 1.3-1.8 1.3.2 1.1 1.1 0 1.8-.5 1.6-.9-.3-.4.3-.8 1.3-.8 1.1 0 2.4-.5 3.1-1.2 1.3-1.3 1.7.2.5 1.8-.5.5 0 .1.9-.9 1-1.1 1.5-2.3 1.2-2.8-.3-.5-.1-.9.3-.9 1.1 0 4.4 5.6 3.7 6.3-.3.3-.1.8.5 1.1.9.6.9 0 .1-3.9-1-4.4 2.5-3.8 4.7.9 1.3 3 1.4 3 .8.3-.4-2-.2-2.7 1-2.7 1 0 1.3.5.9 1.2-.5.8 0 .7 1.1-.2 1.7-1.4 1.8-1.3 1.2.2-.3 1-.2 2 .4 2.3.5.4.9.3.8-.2-.3-2 .2-3.4 1.1-2.8.6.4.7 1.2.3 1.8-.3.7.3.4 1.4-.6 2.3-2 3.8-2.3 2.6-.5-1.1 1.9-1.2 3.7-.3 4.3.5.3.7-.3.5-1.2-.4-2.8 1.4-4.4 3.6-3.2 1.4.7 2.5.6 4.1-.5 1.6-1.1 2.6-1.2 4-.5 2.2 1.2 2.7.9 3.2-1.7.3-1.7-.3-1.9-5.4-1.9-3.2 0-5.6.3-5.4.7.7 1-1 1-2 0-1.4-1.4-5.1-.7-6.8 1.3-1 1.1-1.7 1.5-1.8.9 0-.5.4-1.4 1-2 .6-.6-.2-1-2.4-1-1.9 0-3.4.3-3.4.6s0 1.1-.1 1.9c-.1 1.7-1.6.5-1.6-1.2 0-.9-4.1-1.2-14.2-1.2-7.9 0-14.3.4-14.3.9 0 .4-.8.2-1.7-.5-1-.7-1.5-.9-1-.4zm10.5 2.3c-.8.9-1.3 1-1.8.2-.4-.7-1-1.1-1.4-1-.4.1-1.2 0-1.9-.3-.6-.2.4-.4 2.5-.3 2.8.1 3.4.4 2.6 1.4zm8.2-1.3c0 .7-3 1.3-3.4.7-.3-.4.4-.9 1.5-.9 1-.1 1.9 0 1.9.2zm3.7 1.2c0 .9-.4 1-1.4.2-.7-.6-1.3-1.2-1.3-1.4 0-.1.6-.2 1.3-.2.8 0 1.4.6 1.4 1.4zm4.6 0c-.3.7-.6 1.3-.8 1.3-.2 0-.5-.6-.8-1.3-.3-.8.1-1.4.8-1.4.7 0 1.1.6.8 1.4zm9.9.2c-.4 1-.7 1.1-1 .3-.2-.7-.9-.9-1.4-.6-.6.4-.8.3-.5-.3 1-1.6 3.6-1.1 2.9.6zm9.9-.2c.9.9.8 1.1-.2 1-.8-.2-1.9-.6-2.5-1-.7-.4-1.5 0-1.8.9-.3.8-1.1 1.2-1.7.8-.9-.5-.7-1.1.5-2 2-1.4 4.1-1.3 5.7.3zm11.2-.8c.5.1.5.6.1 1.2-.3.6-.9.7-1.3.2-1-1.4-4.5-1-5.8.7-1.3 1.7-2.8.8-2-1.3.4-1.1 4-1.5 9-.8z"/><path d="M151 621.7c0 .4.5 1.5 1 2.3.8 1.3 1 1.3 1-.2 0-.9-.4-2-1-2.3-.5-.3-1-.3-1 .2zM121.5 623c-.4.6-1.1.7-1.7.4-.7-.4-.8-.2-.4.5.6.9 1.1.9 2.2 0 1.4-1.1 1.8-1.9 1-1.9-.3 0-.8.5-1.1 1zM146 622.9c0 .6.4 1.3 1 1.6.6.3.7-.1.4-.9-.7-1.8-1.4-2.1-1.4-.7zM175.3 622.7c-.7.2-1.3 1-1.3 1.6 0 .8.4.7 1.2-.1 1.3-1.3 3.2-1.6 2.4-.4-.2.4.4.9 1.5.9 1 .1 1.9-.3 1.9-.8 0-.6-.4-.8-.9-.4-.5.3-1.2.1-1.6-.5-.7-1.1-1.3-1.1-3.2-.3zM123.3 625.5c0 .8.4 1.2.9.9.5-.3.6-1 .3-1.5-.9-1.3-1.2-1.1-1.2.6z"/></svg>